<svg id="Camada_1" data-name="Camada 1" xmlns="http://www.w3.org/2000/svg" viewBox="0 0 400 400"><defs><style>.cls-1{font-size:15.25px;font-family:MyriadPro-Regular, Myriad Pro;}.cls-2{letter-spacing:-0.01em;}.cls-3{letter-spacing:-0.01em;}.cls-4{letter-spacing:-0.01em;}.cls-5{letter-spacing:-0.01em;}.cls-6{fill:#2e948a;}</style></defs><text class="cls-1" transform="translate(162.14 279.85)">p<tspan class="cls-2" x="8.68" y="0">o</tspan><tspan class="cls-3" x="16.94" y="0">w</tspan><tspan x="28.01" y="0">e</tspan><tspan class="cls-4" x="35.65" y="0">r</tspan><tspan x="40.49" y="0">ed </tspan><tspan class="cls-5" x="59.96" y="0">b</tspan><tspan x="68.53" y="0">y</tspan></text><path d="M97.16,319.25H89.62v7.57h7.54v-3h4.1v7.1H85.52V315.15h15.74v7.1h-4.1Z"/><path d="M102.84,321.14h10.89V318.9h-6v1.45h-4.1v-5.2h14.2v11.67h4.1v4.1H102.84Zm4.1,5.68h6.79v-2.37h-6.79Z"/><path d="M123.51,315.15h4.1v-7.26h8.21V312h-4.11v3.16h8.21v-7.26h8.2V312H144v3.16h4.1v4.1H144v7.57h4.1v4.1h-12v-4.1h3.79v-7.57h-8.21v7.57h3.79v4.1h-12v-4.1h4.1v-7.57h-4.1Z"/><path d="M165.48,324.45H153.8v2.37h7.54v-1.58h4.11v5.68H149.7V315.15h15.78Zm-11.68-3.31h7.54v-1.89H153.8Z"/><path d="M167.06,326.82h4.1v-7.57h-4.1v-4.1h8.2v11.67h4.1v4.1h-12.3Zm4.41-18H175v4.74h-3.48Z"/><path d="M193.22,326.82h3.09v-7.57h-7.16v7.57h3.43v4.1H180.94v-4.1H185v-7.57h-4.1v-4.1h19.47v11.67h4.1v4.1H193.22Z"/><path d="M221.87,324.45H210.19v2.37h7.55v-1.58h4.1v5.68H206.09V315.15h15.78Zm-11.68-3.31h7.55v-1.89h-7.55Z"/><path d="M246.32,313.25v4.29l-8.11,2.4,8.11,2.4v4.26l-12.62-4.07v-5.21Z"/><path d="M295.05,308.83h4.44L291,330.92h-4.45Z"/><path d="M301.86,326.6v-4.29l8.08-2.4-8.08-2.4v-4.26l12.62,4.07v5.21Z"/><path d="M274,329.15h9.9v1.77h-35v-1.76h7.72c-3.07-4.62-4.11-9.73-4.12-15.15H278v.93c.61,0,1.19,0,1.74.09a4.82,4.82,0,0,1,4.09,4.46,7.71,7.71,0,0,1-6.53,7.94,9.36,9.36,0,0,1-2-.09c-.22,0-.33,0-.44.21C274.64,328.07,274.31,328.58,274,329.15Zm-19.61-13.34c0,.15,0,.28,0,.42a26.11,26.11,0,0,0,.89,5.55,19.29,19.29,0,0,0,3.45,7.13.53.53,0,0,0,.47.24h12.22a.52.52,0,0,0,.45-.21,17.58,17.58,0,0,0,2.15-3.51,24.69,24.69,0,0,0,2.07-7.57c.08-.68.11-1.35.17-2.05Zm23.6,1.07a28,28,0,0,1-2.1,8.82,11.41,11.41,0,0,0,1.5-.09,6,6,0,0,0,4.73-5.37A3.16,3.16,0,0,0,278,316.88Z"/><path d="M264.05,301.55h1.78c-.06.63-.14,1.25-.18,1.88a7.74,7.74,0,0,0,.38,2.94,11.45,11.45,0,0,1,.68,4.34c0,.53-.11,1.06-.16,1.61h-1.84c.05-.34.09-.65.14-1a8.94,8.94,0,0,0-.44-4.1,11,11,0,0,1-.43-5.39C264,301.76,264,301.66,264.05,301.55Z"/><path d="M268.86,312.31c.05-.39.1-.75.15-1.12a8.44,8.44,0,0,0-.45-3.89,11.13,11.13,0,0,1-.42-5.46l0-.2.05-.1H270l-.18,1.36a9.62,9.62,0,0,0,.58,4.22,10.14,10.14,0,0,1,.26,5.19Z"/><path d="M261.71,301.55c0,.37-.11.72-.15,1.07a8.79,8.79,0,0,0,.44,4.13,10.8,10.8,0,0,1,.44,5.26c0,.24-.12.34-.38.33-.49,0-1,0-1.49,0,.06-.5.13-1,.18-1.45a9,9,0,0,0-.53-3.75,10.92,10.92,0,0,1-.32-5.59Z"/><path class="cls-6" d="M176.19,102.26a11.29,11.29,0,0,0,2.13,7.25,7.39,7.39,0,0,0,6,2.56A23.58,23.58,0,0,0,187,112a8.88,8.88,0,0,0,2-.34V94.49a7.48,7.48,0,0,0-2.47-1.11,8,8,0,0,0-3.16-.6c-2.56,0-4.35.86-5.46,2.56A12,12,0,0,0,176.19,102.26Zm19.71,14.16a26.39,26.39,0,0,1-5.2,1.11,39.35,39.35,0,0,1-6.49.51,18.26,18.26,0,0,1-6.31-1.11,13.39,13.39,0,0,1-4.78-3.07,14.62,14.62,0,0,1-3.07-4.86,17.25,17.25,0,0,1-1-6.49,24.87,24.87,0,0,1,.86-6.4,14.36,14.36,0,0,1,2.64-5A11.91,11.91,0,0,1,176.7,88a14.68,14.68,0,0,1,5.55-1.1,13.13,13.13,0,0,1,3.84.51,14.67,14.67,0,0,1,2.82,1.11V74.27l6.91-1.11.08,43.26Zm15.62.77h-6.91V87.58h6.91Zm.85-38.4a4.17,4.17,0,0,1-1.19,3.07,4.61,4.61,0,0,1-3,1.11,5,5,0,0,1-3.07-1.11,3.76,3.76,0,0,1-1.19-3.07,4.52,4.52,0,0,1,1.19-3.16,4.66,4.66,0,0,1,3.07-1.11,4.79,4.79,0,0,1,3,1.11A5,5,0,0,1,212.37,78.79Zm8,9.73a49.68,49.68,0,0,1,5.2-1.11,44.32,44.32,0,0,1,7-.51,15.54,15.54,0,0,1,6.06,1,8.19,8.19,0,0,1,3.84,2.73A10.39,10.39,0,0,1,244.55,95a22.69,22.69,0,0,1,.59,5.46v16.73h-6.91V101.57a18.54,18.54,0,0,0-.34-4.09,6.09,6.09,0,0,0-1-2.73,4,4,0,0,0-2-1.54,7.8,7.8,0,0,0-3-.51c-.94,0-1.8.08-2.73.17a9.84,9.84,0,0,0-2.14.34v24h-6.91V88.52Zm38.65,13.74a11.29,11.29,0,0,0,2.14,7.25,7.37,7.37,0,0,0,6,2.56,23.58,23.58,0,0,0,2.73-.09,8.88,8.88,0,0,0,2-.34V94.49a7.38,7.38,0,0,0-2.47-1.11,7.93,7.93,0,0,0-3.16-.6c-2.56,0-4.35.86-5.46,2.56A12.1,12.1,0,0,0,259.05,102.26Zm19.72,14.16a26.52,26.52,0,0,1-5.21,1.11,39.32,39.32,0,0,1-6.48.51,18.32,18.32,0,0,1-6.32-1.11,12.72,12.72,0,0,1-4.78-3.07,14.78,14.78,0,0,1-3.07-4.86,17.26,17.26,0,0,1-1-6.49,25.33,25.33,0,0,1,.85-6.4,14.53,14.53,0,0,1,2.64-5A11.85,11.85,0,0,1,259.57,88a14.63,14.63,0,0,1,5.54-1.1,13.13,13.13,0,0,1,3.84.51,14.67,14.67,0,0,1,2.82,1.11V74.27l6.91-1.11.09,43.26Zm15.7.77h-6.91V87.58h6.91Zm.77-38.4a4.17,4.17,0,0,1-1.2,3.07,4,4,0,0,1-3,1.11A5,5,0,0,1,288,81.86a3.5,3.5,0,0,1-1.19-3.07A4.52,4.52,0,0,1,288,75.63a4.71,4.71,0,0,1,3.08-1.11,4.79,4.79,0,0,1,3,1.11A5,5,0,0,1,295.24,78.79Zm8,9.73a49.68,49.68,0,0,1,5.2-1.11,44.41,44.41,0,0,1,7-.51,15.51,15.51,0,0,1,6.06,1,8.14,8.14,0,0,1,3.84,2.73A10.39,10.39,0,0,1,327.41,95a22.19,22.19,0,0,1,.6,5.46v16.73h-6.92V101.57a18.54,18.54,0,0,0-.34-4.09,6.09,6.09,0,0,0-1-2.73,4,4,0,0,0-2-1.54,7.89,7.89,0,0,0-3-.51c-.94,0-1.79.08-2.73.17a10,10,0,0,0-2.14.34v24H303V88.52Z"/><path class="cls-6" d="M151.1,101.06a39.56,39.56,0,1,0-39.6,39.51H151V101.74h0C151,101.57,151.1,101.32,151.1,101.06Zm-39.6,32.6A32.52,32.52,0,1,1,144,101.15v.59h0a32.49,32.49,0,0,1-31.83,31.75h0A.94.94,0,0,1,111.5,133.66Z"/><path class="cls-6" d="M120,98.93a58,58,0,0,0-9.9-4.61s-2.82-1.11-2.22-3.41,5-3.33,12.37-.6l1.8-6.15a26.16,26.16,0,0,0-7.94-1.7V77.59h-5.38V83a15.24,15.24,0,0,0-4.86,1.79c-6.49,4.87-7,14.34,7.68,18.43,7.34,1.8,3.67,11.78-10.5,4.87l-1.45,6.48a26.42,26.42,0,0,0,9,2.48v5h5.38v-5.38c1.1-.25,2.21-.59,3.32-.94C126.18,111.73,124.48,101.57,120,98.93Z"/><path class="cls-6" d="M174.31,135.2a4.88,4.88,0,0,1,.34-2,3.86,3.86,0,0,1,.86-1.36,4.1,4.1,0,0,1,1.19-.86,3.59,3.59,0,0,1,1.37-.25,3.15,3.15,0,0,1,2.47,1,4.56,4.56,0,0,1,.94,3.07v.52h-5.89a3.52,3.52,0,0,0,.77,2.39,2.77,2.77,0,0,0,2.31.85,5.6,5.6,0,0,0,1.36-.17,4,4,0,0,0,.77-.26V139c-.17.08-.43.17-.85.34a8,8,0,0,1-1.46.17,4.17,4.17,0,0,1-1.87-.34,3.58,3.58,0,0,1-1.28-.94,4.32,4.32,0,0,1-.77-1.37A5.5,5.5,0,0,1,174.31,135.2Zm6-.69a3.63,3.63,0,0,0-.6-2,2,2,0,0,0-1.62-.77,2.33,2.33,0,0,0-1,.25,2.62,2.62,0,0,0-.76.6,1.81,1.81,0,0,0-.52.85l-.25,1h4.78Z"/><path class="cls-6" d="M190.36,139.12c-.34.09-.69.17-1.2.34a10.42,10.42,0,0,1-1.88.17,3.75,3.75,0,0,1-1.7-.34,3.38,3.38,0,0,1-1.28-.85,3.81,3.81,0,0,1-.86-1.37,5.59,5.59,0,0,1-.34-1.79,6.51,6.51,0,0,1,.26-1.79,3.08,3.08,0,0,1,.77-1.37,3.23,3.23,0,0,1,1.19-.93,3.43,3.43,0,0,1,1.62-.35,3.94,3.94,0,0,1,1.45.26,6.6,6.6,0,0,1,.86.43V127l1-.17v12.29Zm-1-6.65c-.08-.09-.25-.18-.34-.26l-.51-.26a1.7,1.7,0,0,0-.6-.17,2,2,0,0,0-.68-.08,2.86,2.86,0,0,0-1.28.25,2.38,2.38,0,0,0-.85.77,4.2,4.2,0,0,0-.52,1.11,7,7,0,0,0-.17,1.28,3.44,3.44,0,0,0,.86,2.56,2.76,2.76,0,0,0,2.22.85,6.07,6.07,0,0,0,1.28-.08,3,3,0,0,0,.68-.17v-5.8Z"/><path class="cls-6" d="M199.66,139c-.34.08-.77.17-1.28.25a11.52,11.52,0,0,1-2,.17,4.18,4.18,0,0,1-1.54-.25,2.27,2.27,0,0,1-1-.77,5,5,0,0,1-.6-1.2,8.85,8.85,0,0,1-.17-1.53V131h1v4.36a8,8,0,0,0,.17,1.53,3,3,0,0,0,.43,1,1.29,1.29,0,0,0,.77.51,4.54,4.54,0,0,0,1.11.17,5.37,5.37,0,0,0,1.28-.09c.34-.08.59-.08.68-.17V131h1v8Z"/><path class="cls-6" d="M205.89,139.55a3.68,3.68,0,0,1-1.71-.34,3.29,3.29,0,0,1-1.28-.86,3.55,3.55,0,0,1-.77-1.36,5.69,5.69,0,0,1-.25-1.79,5.76,5.76,0,0,1,.25-1.8,3.55,3.55,0,0,1,.77-1.36,6.56,6.56,0,0,1,1.2-.94,3.18,3.18,0,0,1,1.62-.34,6.94,6.94,0,0,1,1.28.08,7.34,7.34,0,0,1,.94.26l-.26.94c-.26-.09-.43-.17-.77-.26a4.09,4.09,0,0,0-1.11-.08,2.63,2.63,0,0,0-2.13.94,3.81,3.81,0,0,0-.68,2.56,6.24,6.24,0,0,0,.17,1.36,2.51,2.51,0,0,0,.51,1.11,3.77,3.77,0,0,0,.94.68,3.23,3.23,0,0,0,1.36.26,3.93,3.93,0,0,0,1.11-.17,3,3,0,0,0,.69-.26l.34.86c-.17.08-.51.17-.94.34A7.14,7.14,0,0,1,205.89,139.55Z"/><path class="cls-6" d="M212.37,130.76a3.26,3.26,0,0,1,1.37.25,2.6,2.6,0,0,1,.94.69,2.06,2.06,0,0,1,.51.94,4.74,4.74,0,0,1,.17,1.19v5.29a2.85,2.85,0,0,1-.51.09c-.17,0-.43.08-.68.08a3.07,3.07,0,0,1-.94.09h-1a5.33,5.33,0,0,1-1.19-.17,3.38,3.38,0,0,1-.94-.43,2.27,2.27,0,0,1-.68-.85,2.88,2.88,0,0,1,0-2.39,1.64,1.64,0,0,1,.77-.77,4.5,4.5,0,0,1,1.1-.43,8,8,0,0,1,1.46-.17h.51a1,1,0,0,1,.51.09c.17,0,.26.08.43.08s.17.09.25.09v-.51a3.14,3.14,0,0,0-.08-.86l-.26-.77a1.18,1.18,0,0,0-.6-.51,1.82,1.82,0,0,0-1-.17,5.1,5.1,0,0,0-1.37.17,2.4,2.4,0,0,1-.68.17l-.17-.94a3.57,3.57,0,0,1,.85-.25A6.78,6.78,0,0,0,212.37,130.76Zm.17,7.85h1.11c.35,0,.6-.09.77-.09v-3c-.08-.09-.34-.09-.6-.17a3.58,3.58,0,0,0-1.1-.09,3.07,3.07,0,0,0-.86.09,1.4,1.4,0,0,0-.77.25,1.17,1.17,0,0,0-.59.52,1.43,1.43,0,0,0-.26.85,1.79,1.79,0,0,0,.17.77,1.34,1.34,0,0,0,.43.51,1.66,1.66,0,0,0,.68.25C211.86,138.52,212.2,138.61,212.54,138.61Z"/><path class="cls-6" d="M221.51,140a1.41,1.41,0,0,1,.68.51,1,1,0,0,1,.25.77.79.79,0,0,1-.08.42,1.24,1.24,0,0,1-.26.43.72.72,0,0,1-.51.25,2,2,0,0,1-.77.09,1.8,1.8,0,0,1-.68-.09c-.26-.08-.43-.08-.51-.17l.17-.68c.08.09.25.09.42.09h.52c.42,0,.68-.17.68-.52a.46.46,0,0,0-.26-.42,6.08,6.08,0,0,1-.68-.34c.09-.17.09-.26.17-.43l.26-.51a3.42,3.42,0,0,1-2.48-1.37,5.38,5.38,0,0,1-.85-3,5.47,5.47,0,0,1,.26-1.8,3.54,3.54,0,0,1,.76-1.36,4.13,4.13,0,0,1,1.2-.94,5,5,0,0,1,1.62-.34,5.45,5.45,0,0,1,2.22.34l-.26.94a6.84,6.84,0,0,0-.77-.26,4,4,0,0,0-1.1-.08,2.65,2.65,0,0,0-2.14.94,3.81,3.81,0,0,0-.68,2.56,6.32,6.32,0,0,0,.17,1.36,2.63,2.63,0,0,0,.51,1.11,3.77,3.77,0,0,0,.94.68,3.25,3.25,0,0,0,1.37.26,4.05,4.05,0,0,0,1.11-.17,2.84,2.84,0,0,0,.68-.26l.25.94c-.17.09-.51.17-.85.34a6.25,6.25,0,0,1-1.28.17c0,.09-.08.17-.08.26Z"/><path class="cls-6" d="M228.16,130.76a3.29,3.29,0,0,1,1.37.25,2.6,2.6,0,0,1,.94.69,2.06,2.06,0,0,1,.51.94,5.24,5.24,0,0,1,.17,1.19v5.29a3.05,3.05,0,0,1-.51.09c-.17,0-.43.08-.69.08a3,3,0,0,1-.94.09h-1a5.24,5.24,0,0,1-1.19-.17,3.13,3.13,0,0,1-.94-.43,2.39,2.39,0,0,1-.69-.85,3,3,0,0,1,0-2.39,1.74,1.74,0,0,1,.77-.77,4.58,4.58,0,0,1,1.11-.43,8,8,0,0,1,1.45-.17H229a1,1,0,0,1,.52.09c.17,0,.25.08.42.08s.17.09.26.09v-.51a2.8,2.8,0,0,0-.09-.86l-.25-.77a1.18,1.18,0,0,0-.6-.51,1.86,1.86,0,0,0-1-.17,5.1,5.1,0,0,0-1.37.17,3.42,3.42,0,0,1-.68.17L226,131a3.42,3.42,0,0,1,.85-.25A6.57,6.57,0,0,0,228.16,130.76Zm1.28-1.62a1.77,1.77,0,0,1-.68-.09l-.6-.25-.51-.26a.62.62,0,0,0-.34-.09.51.51,0,0,0-.51.26,1.94,1.94,0,0,0-.35.51l-.59-.25a1.07,1.07,0,0,1,.25-.43c.17-.17.17-.26.34-.43a.91.91,0,0,1,.43-.34,1.29,1.29,0,0,1,.6-.17,1.77,1.77,0,0,1,.68.09,4,4,0,0,0,.6.25l.51.26a.69.69,0,0,0,.34.08.5.5,0,0,0,.51-.25,1.94,1.94,0,0,0,.35-.51l.59.25a1.07,1.07,0,0,1-.25.43,1.77,1.77,0,0,1-.34.43.91.91,0,0,1-.43.34A.82.82,0,0,1,229.44,129.14Zm-1.19,9.47h1.11c.34,0,.59-.09.76-.09v-3c-.08-.09-.34-.09-.59-.17a3.68,3.68,0,0,0-1.11-.09,3.1,3.1,0,0,0-.86.09,1.35,1.35,0,0,0-.76.25,1.15,1.15,0,0,0-.6.52,1.43,1.43,0,0,0-.26.85,1.79,1.79,0,0,0,.17.77.93.93,0,0,0,.43.51,1,1,0,0,0,.68.25C227.56,138.52,227.91,138.61,228.25,138.61Z"/><path class="cls-6" d="M241,135.2a5.69,5.69,0,0,1-.25,1.79,3.55,3.55,0,0,1-.77,1.36,3.69,3.69,0,0,1-1.2.86,4.06,4.06,0,0,1-1.53.34,3,3,0,0,1-1.54-.34,3.65,3.65,0,0,1-1.19-.86,3.55,3.55,0,0,1-.77-1.36,5.68,5.68,0,0,1-.26-1.79,5.74,5.74,0,0,1,.26-1.8,3.55,3.55,0,0,1,.77-1.36,3.77,3.77,0,0,1,1.19-.85,3.93,3.93,0,0,1,1.54-.35,2.87,2.87,0,0,1,1.53.35,5.77,5.77,0,0,1,1.2.85,4.38,4.38,0,0,1,.77,1.36A5.76,5.76,0,0,1,241,135.2Zm-1.11,0a3.7,3.7,0,0,0-.77-2.48,2.51,2.51,0,0,0-3.92,0,4.36,4.36,0,0,0,0,4.95,2.51,2.51,0,0,0,3.92,0A3.69,3.69,0,0,0,239.85,135.2Z"/><path class="cls-6" d="M250,126.75a4.49,4.49,0,0,1,1.11.08,3,3,0,0,0,.59.17l-.17.94c-.08-.08-.25-.08-.51-.17a2.76,2.76,0,0,0-.85-.08,1.91,1.91,0,0,0-1.62.59,2.83,2.83,0,0,0-.51,1.8v.85h3.41v.85h-3.41v7.51h-1v-9.21a3.61,3.61,0,0,1,.77-2.48A2.65,2.65,0,0,1,250,126.75Zm4.35,1.7a.78.78,0,0,1-.26.6.74.74,0,0,1-.51.26.62.62,0,0,1-.51-.26.81.81,0,0,1,0-1.19.74.74,0,0,1,.51-.26.6.6,0,0,1,.51.26A1.23,1.23,0,0,1,254.36,128.45Zm-.26,10.93h-1V131h1Z"/><path class="cls-6" d="M256.92,131.27c.34-.08.77-.17,1.28-.26a12.53,12.53,0,0,1,2-.17,4.58,4.58,0,0,1,1.62.26,2.36,2.36,0,0,1,1,.77,3,3,0,0,1,.51,1.19,9,9,0,0,1,.17,1.54v4.69h-1v-4.35a7.92,7.92,0,0,0-.09-1.54,2.82,2.82,0,0,0-.42-1,1.9,1.9,0,0,0-.77-.6,4.73,4.73,0,0,0-1.2-.17,5.37,5.37,0,0,0-1.28.09c-.34.08-.6.08-.68.17v7.34h-1v-7.94Z"/><path class="cls-6" d="M268.7,130.76a3.24,3.24,0,0,1,1.36.25,2.6,2.6,0,0,1,.94.69,1.89,1.89,0,0,1,.51.94,4.74,4.74,0,0,1,.17,1.19v5.29a2.68,2.68,0,0,1-.51.09c-.25,0-.43.08-.68.08a3.07,3.07,0,0,1-.94.09h-1a5.34,5.34,0,0,1-1.2-.17,3.38,3.38,0,0,1-.94-.43,2.37,2.37,0,0,1-.68-.85,2.88,2.88,0,0,1,0-2.39,1.69,1.69,0,0,1,.77-.77,4.42,4.42,0,0,1,1.11-.43,7.9,7.9,0,0,1,1.45-.17h.51a1,1,0,0,1,.51.09c.17,0,.26.08.43.08s.17.09.25.09v-.51a3.14,3.14,0,0,0-.08-.86l-.26-.77a.92.92,0,0,0-.59-.51,3.39,3.39,0,0,0-1-.17,5,5,0,0,0-1.36.17,2.53,2.53,0,0,1-.69.17l-.17-.94a3.54,3.54,0,0,1,.86-.25A6.56,6.56,0,0,0,268.7,130.76Zm.08,7.85h1.11c.34,0,.6-.09.77-.09v-3c-.09-.09-.34-.09-.6-.17a3.65,3.65,0,0,0-1.11-.09,2.29,2.29,0,0,0-.77.09,1.35,1.35,0,0,0-.76.25,1.15,1.15,0,0,0-.6.52,1.43,1.43,0,0,0-.26.85,1.79,1.79,0,0,0,.17.77.93.93,0,0,0,.43.51,1.72,1.72,0,0,0,.68.25C268.1,138.52,268.44,138.61,268.78,138.61Z"/><path class="cls-6" d="M274.41,131.27c.35-.08.77-.17,1.28-.26a12.79,12.79,0,0,1,2-.17,4.66,4.66,0,0,1,1.62.26,2.27,2.27,0,0,1,1,.77,2.87,2.87,0,0,1,.51,1.19,9,9,0,0,1,.18,1.54v4.69h-1v-4.35a8.89,8.89,0,0,0-.08-1.54,3,3,0,0,0-.43-1,1.84,1.84,0,0,0-.77-.6,4.64,4.64,0,0,0-1.19-.17,5.32,5.32,0,0,0-1.28.09c-.34.08-.6.08-.69.17v7.34h-1v-7.94Z"/><path class="cls-6" d="M287,139.55a3.64,3.64,0,0,1-1.7-.34,3.29,3.29,0,0,1-1.28-.86,3.55,3.55,0,0,1-.77-1.36,5.68,5.68,0,0,1-.26-1.79,5.74,5.74,0,0,1,.26-1.8,3.55,3.55,0,0,1,.77-1.36,6.84,6.84,0,0,1,1.19-.94,5,5,0,0,1,1.62-.34,6.83,6.83,0,0,1,1.28.08,6.5,6.5,0,0,1,.94.26l-.25.94c-.26-.09-.43-.17-.77-.26a4.13,4.13,0,0,0-1.11-.08,2.63,2.63,0,0,0-2.13.94,3.76,3.76,0,0,0-.69,2.56,6.92,6.92,0,0,0,.17,1.36,2.64,2.64,0,0,0,.52,1.11,3.54,3.54,0,0,0,.93.68,3.31,3.31,0,0,0,1.37.26,4,4,0,0,0,1.11-.17,2.84,2.84,0,0,0,.68-.26l.26.94c-.17.09-.51.17-.94.34C288,139.46,287.56,139.55,287,139.55Z"/><path class="cls-6" d="M290.54,135.2a4.88,4.88,0,0,1,.34-2,4.3,4.3,0,0,1,.86-1.36,4.1,4.1,0,0,1,1.19-.86,3.59,3.59,0,0,1,1.37-.25,3.15,3.15,0,0,1,2.47,1,4.56,4.56,0,0,1,.94,3.07v.52h-5.89a3.52,3.52,0,0,0,.77,2.39,3,3,0,0,0,2.31.85,5.6,5.6,0,0,0,1.36-.17,4,4,0,0,0,.77-.26l.17.94c-.17.09-.43.17-.85.34a5.72,5.72,0,0,1-3.33-.17,3.47,3.47,0,0,1-1.28-.94A4.27,4.27,0,0,1,291,137,3.5,3.5,0,0,1,290.54,135.2Zm6-.69a3.63,3.63,0,0,0-.6-2,2,2,0,0,0-1.62-.77,2.33,2.33,0,0,0-1,.25,2.62,2.62,0,0,0-.76.6,1.81,1.81,0,0,0-.52.85l-.25,1h4.78Z"/><path class="cls-6" d="M301.21,128.45a.78.78,0,0,1-.26.6.74.74,0,0,1-.51.26.53.53,0,0,1-.51-.26.81.81,0,0,1,0-1.19.74.74,0,0,1,.51-.26.51.51,0,0,1,.51.26A.56.56,0,0,1,301.21,128.45ZM301,139.38h-1V131h1Z"/><path class="cls-6" d="M306.67,130.84a4,4,0,0,1,1,.09,3.13,3.13,0,0,1,.68.17l-.17.94c-.09-.09-.26-.09-.51-.17a3.38,3.38,0,0,0-1-.09,4,4,0,0,0-1.11.09c-.25.08-.42.08-.51.17v7.34h-1v-8a8.25,8.25,0,0,1,1.11-.35A3.55,3.55,0,0,1,306.67,130.84Z"/><path class="cls-6" d="M312.39,130.76a3.24,3.24,0,0,1,1.36.25,2.44,2.44,0,0,1,.94.69,2,2,0,0,1,.52.94,5.24,5.24,0,0,1,.17,1.19v5.29a3,3,0,0,1-.52.09c-.25,0-.42.08-.68.08a3,3,0,0,1-.94.09h-1a5.42,5.42,0,0,1-1.2-.17,3.19,3.19,0,0,1-.93-.43,2.28,2.28,0,0,1-.69-.85,3,3,0,0,1,0-2.39,1.69,1.69,0,0,1,.77-.77,4.42,4.42,0,0,1,1.11-.43,8,8,0,0,1,1.45-.17h.51a1,1,0,0,1,.51.09c.18,0,.26.08.43.08s.17.09.26.09v-.51a2.8,2.8,0,0,0-.09-.86l-.25-.77a1,1,0,0,0-.6-.51,3.39,3.39,0,0,0-1-.17,5.07,5.07,0,0,0-1.36.17,2.48,2.48,0,0,1-.68.17l-.17-.94a3.42,3.42,0,0,1,.85-.25A6.7,6.7,0,0,0,312.39,130.76Zm.08,7.85h1.11c.35,0,.6-.09.77-.09v-3c-.08-.09-.34-.09-.6-.17a3.58,3.58,0,0,0-1.1-.09,2.23,2.23,0,0,0-.77.09,1.38,1.38,0,0,0-.77.25,1.15,1.15,0,0,0-.6.52,1.42,1.42,0,0,0-.25.85,1.66,1.66,0,0,0,.17.77.88.88,0,0,0,.42.51,1.71,1.71,0,0,0,.69.25C311.88,138.52,312.13,138.61,312.47,138.61Z"/></svg>