<svg width="382" height="383" viewBox="0 0 382 383" fill="none" xmlns="http://www.w3.org/2000/svg">
<path fill-rule="evenodd" clip-rule="evenodd" d="M239.685 4.77215C239.685 7.22644 239.903 9.611 240.171 10.0712C240.506 10.6496 240.656 9.53012 240.656 6.44553C240.656 3.99124 240.438 1.60668 240.171 1.1465C239.835 0.568065 239.685 1.68756 239.685 4.77215ZM249.782 8.91599C248.665 11.0724 247.936 12.9645 248.162 13.1201C248.612 13.4297 252.442 5.69307 252.053 5.26078C251.921 5.11408 250.9 6.75901 249.782 8.91599ZM224.636 6.35015C224.634 6.84045 227.15 14.0918 227.459 14.4872C227.56 14.615 227.764 14.5837 227.913 14.4169C228.062 14.2507 227.794 13.0169 227.316 11.6748C226.386 9.05767 224.639 5.58764 224.636 6.35015ZM234.869 17.2332C231.025 19.2357 229.358 23.0454 229.779 28.8733C229.973 31.5635 230.417 33.1348 231.567 35.1936C232.409 36.7008 232.885 38.0802 232.625 38.2592C231.799 38.8265 232.114 40.7141 233.154 41.437C233.705 41.8202 234.156 42.5754 234.156 43.1154C234.156 43.7903 234.548 44.0965 235.409 44.0965C236.099 44.0965 236.662 43.8455 236.662 43.5387C236.662 43.232 237.294 42.981 238.066 42.981C239.77 42.981 240.672 42.074 240.672 40.3593C240.672 39.5812 240.972 39.0764 241.436 39.0764C242.716 39.0764 246.48 34.4149 247.426 31.6589C248.043 29.8572 248.245 28.1163 248.084 25.9594C247.83 22.5507 246.945 20.8667 244.027 18.2378C241.628 16.0769 237.879 15.6658 234.869 17.2332ZM242.649 18.4225C247.377 21.1071 248.826 27.0911 246.163 32.9407C243.246 39.3475 236.989 40.689 232.991 35.7637C228.524 30.2605 229.558 20.7334 234.908 18.1051C237.103 17.0263 240.431 17.163 242.649 18.4225ZM255.456 21.227C255.053 21.9538 259.207 21.9538 260.217 21.227C260.756 20.8394 260.232 20.6837 258.368 20.6776C256.937 20.6731 255.627 20.9203 255.456 21.227ZM35.191 127.281V229.617L33.5206 230.29C31.6267 231.052 30.5076 232.957 30.5682 235.319C30.6018 236.641 30.2835 237.095 28.7655 237.891C26.2396 239.215 22.0738 242.202 22.3399 242.499C22.4597 242.632 24.3963 241.713 26.643 240.455L30.7281 238.169L32.0246 239.305C32.7378 239.929 33.7366 240.44 34.2443 240.44C35.0973 240.44 35.178 241.141 35.3173 249.783L35.4677 259.126L35.5799 249.783C35.6857 241 35.7498 240.44 36.6499 240.44C38.2066 240.44 40.2027 237.324 40.2027 234.896V232.784L51.3062 227.113L62.4097 221.442L63.5258 222.61C66.822 226.056 72.2096 221.834 70.6931 216.993C70.0581 214.965 69.401 215.911 83.1873 199.011C89.908 190.772 94.3143 185.798 94.7999 185.903C95.4826 186.049 95.5823 187.735 95.5823 199.109V212.148L93.4117 212.861C92.2179 213.253 90.7851 214.034 90.2278 214.595C87.0393 217.807 86.6579 224.389 89.46 227.848C91.0592 229.822 95.1919 231.035 97.6631 230.256C102.1 228.857 107.61 230.009 107.61 232.337C107.61 235.331 101.058 237.073 93.8282 236.002C88.846 235.264 86.6439 234.523 85.5919 233.229C84.762 232.208 84.7755 232.122 85.8926 231.317C86.5361 230.854 87.6928 230.302 88.4641 230.091C89.2349 229.88 89.7652 229.596 89.6424 229.459C89.1813 228.946 85.4335 230.437 84.5961 231.466C83.4198 232.913 84.2267 234.556 86.5787 235.503C87.77 235.982 88.4611 236.678 88.6892 237.63C89.1517 239.559 89.1517 246.85 88.6892 249.922C88.3594 252.114 88.388 252.255 88.9177 251.038C89.2846 250.193 89.5326 246.983 89.5462 242.901L89.5682 236.159L91.5729 236.673C92.6755 236.956 95.7582 237.095 98.4234 236.982L103.269 236.778L103.56 238.4C103.72 239.292 103.852 241.005 103.852 242.206C103.852 244.996 105.15 252.021 106.464 256.337C108.183 261.984 110.459 266.228 113.55 269.551L116.503 272.726L116.291 278.134C116.088 283.293 116.012 283.6 114.64 284.818C113.85 285.52 111.38 286.781 109.154 287.622C105.567 288.975 104.39 289.146 98.8399 289.119C89.6584 289.075 82.5809 287.054 79.1689 283.501C77.8398 282.117 77.7907 281.862 77.7907 276.382V270.699L81.2262 265.959C84.4016 261.577 87.8141 255.708 87.8141 254.628C87.8141 254.377 87.0082 255.662 86.0234 257.485C84.2603 260.747 81.8913 264.304 78.6737 268.519C77.0885 270.596 77.0339 270.837 76.867 276.505C76.7212 281.46 76.8284 282.514 77.5701 283.426C78.4161 284.467 78.2883 284.684 73.7181 289.943C66.8621 297.831 52.6754 315.466 31.1982 342.795C3.86723 377.572 0.596076 381.823 1.0356 381.992C1.36337 382.118 81.2618 380.703 360.327 375.627C371.697 375.42 381 375.071 381 374.852C381 374.631 371.192 364.757 359.205 352.908C335.83 329.802 335.434 329.336 329.562 317.934C325.428 309.911 323.386 301.272 322.342 287.392C321.798 280.175 322.04 279.224 324.553 278.699C328.198 277.938 330.344 274.653 329.362 271.34C328.538 268.56 326.019 267.093 321.52 266.771L317.795 266.505L319.05 265.047C320.903 262.894 321.862 259.858 321.862 256.146C321.862 250.137 319.671 245.581 315.455 242.823C313.464 241.52 312.538 241.28 309.583 241.301C306.686 241.321 305.612 241.607 303.418 242.939C296.141 247.358 294.79 257.799 300.573 264.923L302.315 267.07L299.184 267.46C293.22 268.204 289.57 271.131 290.587 274.352C291.141 276.104 293.71 278.15 296.348 278.941C298.088 279.463 298.274 279.71 298.556 281.869C298.725 283.165 298.794 287.043 298.71 290.485L298.557 296.744L286.618 285.884L274.679 275.023H258.177C248.09 275.023 241.674 274.817 241.674 274.493C241.674 274.202 242.311 272.884 243.09 271.564C247.881 263.449 248.409 254.284 244.423 248.467C242.187 245.204 241.625 237.679 243.292 233.305C243.609 232.474 245.202 229.57 246.833 226.852C252.358 217.64 253.427 213.566 253.442 201.673C253.447 197.071 253.277 191.236 253.064 188.704C252.787 185.409 252.837 184.103 253.241 184.103C253.551 184.103 255.651 183.14 257.907 181.963C263.809 178.884 267.991 174.38 270.822 168.049C272.981 163.221 272.997 163.142 272.972 157.328C272.951 152.322 272.75 150.914 271.592 147.634C270.846 145.523 269.348 142.314 268.261 140.503L266.285 137.21L267.563 135.137C268.692 133.304 268.808 132.677 268.558 129.718C268.404 127.877 267.49 123.233 266.529 119.399L264.781 112.426L268.638 108.543C270.76 106.408 275.026 101.912 278.119 98.5516C281.795 94.5567 283.82 92.7149 283.967 93.2303C284.092 93.6642 284.442 125.144 284.745 163.185C285.336 237.247 285.717 260.825 286.312 260.124C286.517 259.882 286.488 250.145 286.248 238.487C286.007 226.829 285.653 189.492 285.461 155.516L285.113 93.7401H286.47C287.221 93.7401 288.346 93.1628 288.988 92.4483L290.149 91.1564L297.861 96.2485C304.124 100.383 305.601 101.596 305.72 102.7C306.408 109.108 314.124 110.317 316.339 104.363C317.102 102.313 316.734 100.472 315.141 98.3642L313.933 96.7667L317.929 90.6516C320.127 87.2881 326.478 77.5429 332.042 68.9959L342.159 53.4552L342.255 67.8803C342.931 169.824 343.605 242.816 343.932 249.364C344.229 255.305 344.281 252.789 344.128 239.882C344.014 230.218 343.77 183.882 343.585 136.912C343.276 57.8662 343.313 51.4153 344.083 50.191C345.12 48.5438 345.165 47.6341 344.164 48.5589C343.5 49.1719 343.4 47.8259 343.305 37.0527L343.198 24.8527L342.929 37.6819L342.66 50.5112L327.947 73.3807C314.041 94.9957 313.156 96.2407 311.814 96.0795C310.179 95.8826 307.69 97.1594 306.728 98.6877C306.103 99.6806 305.643 99.4781 298.186 94.926C292.517 91.466 290.301 89.83 290.296 89.1015C290.277 86.737 288.323 84.3056 286.416 84.2755C285.485 84.2604 285.336 84.005 285.515 82.7237C285.633 81.8803 285.82 68.5139 285.931 53.0212C286.042 37.5285 285.964 27.3628 285.758 30.4306C285.552 33.4985 285.219 46.8018 285.019 59.9936L284.655 83.9787L283.468 85.2505C281.981 86.843 281.479 88.9643 282.182 90.6812C282.776 92.132 283.765 90.9288 270.103 105.372C267.133 108.512 264.508 110.946 264.27 110.782C264.032 110.618 263.684 109.792 263.496 108.945C262.892 106.216 257.837 95.201 256.18 93.0038C254.564 90.8602 252.562 89.2527 247.939 86.3884C245.926 85.1412 245.67 84.8338 246.639 84.8255C247.894 84.8149 251.196 82.3623 251.196 81.4402C251.196 81.1491 250.555 80.9109 249.771 80.9109C247.188 80.9109 246.626 79.4941 245.351 69.7762C245.184 68.5061 244.468 67.1847 243.26 65.9168C241.58 64.1531 241.432 63.7537 241.532 61.2297C241.691 57.1835 240.72 55.5765 236.775 53.3509C234.921 52.3056 232.615 50.5262 231.651 49.3978C230.686 48.2688 229.009 46.8364 227.924 46.2145C225.503 44.8267 221.622 44.7218 219.874 45.9975C218.939 46.6791 218.603 46.7304 218.552 46.2011C218.515 45.8106 218.32 41.4749 218.118 36.5663L217.753 27.6417L217.706 38.2397C217.681 44.0687 217.516 49.6265 217.34 50.5909C217.128 51.7461 217.316 53.0419 217.891 54.3895C218.735 56.3702 218.729 56.5186 217.697 59.051C215.256 65.0439 215.06 70.7512 217.161 74.6971C218.067 76.3978 218.228 77.4977 218.154 81.4687C218.104 84.0763 217.897 86.3968 217.694 86.6249C217.49 86.853 215.907 87.2044 214.177 87.4058L211.03 87.7717L207.823 84.2331C206.058 82.2869 204.518 80.806 204.399 80.9421C204.281 81.0782 203.866 82.9468 203.478 85.0943L202.772 88.9989L200.711 88.8973C197.277 88.7283 193.212 86.1045 188.778 81.1931C186.561 78.7372 183.761 75.0223 182.555 72.9383C181.184 70.5677 180.114 69.2563 179.696 69.4348C179.231 69.6334 179.008 69.1738 178.965 67.9249C178.909 66.338 178.862 66.406 178.554 68.5089C178.319 70.117 177.658 71.5182 176.514 72.8318C174.668 74.9514 173.338 75.2448 171.625 73.91C170.506 73.0365 168.912 70.397 169.926 71.0943C170.213 71.2917 171.081 70.5688 171.856 69.4884C172.63 68.4079 173.615 67.5238 174.045 67.5238C174.475 67.5238 175.222 67.202 175.706 66.8088C176.459 66.1946 176.278 66.1249 174.423 66.3185L172.262 66.5438L173.205 65.3747C174.482 63.7917 175.755 63.423 177.129 64.2373C178.17 64.8554 178.213 64.8325 177.588 63.9897C177.21 63.4793 176.612 63.0615 176.26 63.0615C175.9 63.0615 175.349 61.7797 175.002 60.1331C174.264 56.6357 173.675 55.2524 172.921 55.2524C172.532 55.2524 172.454 56.6826 172.664 59.9936C172.97 64.8197 172.744 65.6106 171.626 63.6193C170.786 62.1227 169.783 62.2142 168.595 63.8954L167.611 65.2865L169.311 67.352C170.4 68.6751 170.837 69.6111 170.529 69.9547C169.98 70.5649 168.045 68.2969 168.018 67.0123C168.009 66.5778 167.851 66.3899 167.667 66.5951C167.482 66.7998 167.573 67.5322 167.867 68.2222C168.161 68.9116 168.68 70.3005 169.021 71.3079C169.716 73.3617 171.685 75.3329 173.042 75.3329C173.774 75.3329 173.669 75.633 172.474 76.9634C171.668 77.8603 171.009 78.9971 171.009 79.4896C171.009 80.7318 173.757 86.6751 176.137 90.5802C178.476 94.4189 183.528 100.731 185.664 102.485L187.172 103.724L185.731 104.062C180.703 105.239 171.746 108.872 165.582 112.234C161.632 114.387 158.362 116.065 158.315 115.961C158.267 115.858 158.371 105.356 158.545 92.6245C158.979 60.8688 158.932 23.9825 158.468 30.7731C158.266 33.7222 157.933 54.3577 157.727 76.6287L157.353 117.122L153.781 119.463C141.419 127.564 124.595 143.92 121.393 150.952C120.318 153.312 120.14 154.455 120.14 159.002C120.14 163.801 120.29 164.655 121.736 168.051C125.754 177.492 133.84 182.866 143.202 182.32C148.623 182.003 151.895 180.262 155.331 175.865C156.722 174.085 159.047 171.919 160.533 171.018C163.566 169.182 165.616 169.024 171.434 170.181C175.626 171.015 175.499 170.602 173.999 178.525C172.653 185.63 170.594 193.027 169.963 193.027C169.236 193.027 164.02 197.039 161.152 199.803L158.73 202.138L158.354 189.662C158.148 182.801 157.786 176.972 157.551 176.711C157.184 176.302 157.258 194.891 157.643 200.139C157.717 201.136 157.621 201.952 157.43 201.952C157.24 201.952 152.492 200.716 146.881 199.207C141.27 197.697 135.231 196.128 133.462 195.721C130.442 195.025 130.235 194.877 130.065 193.306C129.814 190.974 127.348 188.565 125.211 188.565C123.4 188.565 120.891 190.37 120.891 191.673C120.891 192.111 120.723 192.454 120.516 192.436C120.309 192.418 115.969 190.206 110.872 187.522L101.604 182.642L101.287 180.475C100.964 178.262 98.9767 175.736 97.5589 175.736C96.9329 175.736 96.8262 167.655 96.7671 115.912C96.73 83.0093 96.5465 49.0609 96.3601 40.4709C96.1606 31.2818 95.9827 55.9078 95.9271 100.294C95.8464 164.82 95.7306 175.736 95.1257 175.736C94.7368 175.736 93.8347 176.508 93.121 177.452C91.7172 179.309 91.4391 181.759 92.4319 183.529C92.9396 184.433 92.8694 184.825 92.0089 185.892C90.4929 187.771 77.1021 204.878 73.0295 210.138C70.2139 213.775 69.3549 214.57 68.6773 214.168C65.9439 212.542 61.7551 215.165 61.7516 218.503C61.7501 220.009 61.2495 220.345 50.6006 225.982C39.4951 231.861 39.4465 231.881 38.2557 230.863C37.5981 230.301 36.7416 229.842 36.3522 229.842C35.7443 229.842 35.6631 215.415 35.7789 127.796C35.8526 71.6705 35.7508 25.5689 35.5523 25.3475C35.3534 25.1266 35.191 70.9967 35.191 127.281ZM218.119 25.6894C218.119 26.0982 218.269 26.2656 218.453 26.0614C218.637 25.8567 218.637 25.522 218.453 25.3173C218.269 25.1132 218.119 25.2805 218.119 25.6894ZM236.495 29.7903C236.276 30.9722 236.224 32.0806 236.38 32.254C236.535 32.427 236.662 32.3299 236.662 32.0376C236.662 31.7453 237.113 31.5066 237.665 31.5066C238.216 31.5066 238.667 31.7303 238.667 32.0042C238.667 32.278 238.991 32.3639 239.386 32.1949C240.45 31.7409 240.629 33.0205 239.725 34.6141C239.014 35.868 239.014 35.9394 239.719 35.3208C240.512 34.6252 243.437 29.0361 243.008 29.0361C242.879 29.0361 242.306 29.8522 241.732 30.849C241.158 31.8457 240.685 32.321 240.68 31.9049C240.675 31.4625 240.359 31.2813 239.92 31.4692C239.476 31.6583 239.168 31.4759 239.168 31.023C239.168 30.5411 238.81 30.3603 238.204 30.5366C237.443 30.7586 237.203 30.4825 237.066 29.2297C236.904 27.7443 236.868 27.7805 236.495 29.7903ZM235.739 34.0563C235.739 34.8232 235.853 35.1373 235.992 34.7535C236.131 34.3703 236.131 33.7428 235.992 33.359C235.853 32.9758 235.739 33.2893 235.739 34.0563ZM235.66 36.0085C235.66 36.1619 235.773 36.2874 235.911 36.2874C236.048 36.2874 236.161 36.1619 236.161 36.0085C236.161 35.8552 236.048 35.7297 235.911 35.7297C235.773 35.7297 235.66 35.8552 235.66 36.0085ZM238.667 36.5663C238.667 36.7197 238.78 36.8452 238.918 36.8452C239.055 36.8452 239.168 36.7197 239.168 36.5663C239.168 36.4129 239.055 36.2874 238.918 36.2874C238.78 36.2874 238.667 36.4129 238.667 36.5663ZM235.332 38.7975C236.322 39.2577 237.815 39.6342 238.651 39.6342C240.316 39.6342 240.681 40.6996 239.416 41.8676C238.569 42.6502 234.897 42.2229 233.806 41.215C233.233 40.6862 232.846 37.9608 233.344 37.9608C233.448 37.9608 234.342 38.3373 235.332 38.7975ZM235.911 42.981C236.081 43.2877 235.868 43.5387 235.439 43.5387C235.009 43.5387 234.658 43.2877 234.658 42.981C234.658 42.6742 234.87 42.4232 235.129 42.4232C235.389 42.4232 235.74 42.6742 235.911 42.981ZM227.281 46.5202C228.168 46.9324 230.161 48.5589 231.709 50.1335C233.257 51.7087 235.513 53.4719 236.72 54.0526C241.173 56.1912 241.635 57.9041 239.676 64.9887C238.845 67.9924 238.166 70.7959 238.166 71.2181C238.166 71.6995 237.605 71.9862 236.662 71.9862C234.887 71.9862 234.838 71.7804 236.161 69.9073C238.075 67.1998 237.23 64.9485 234.028 64.2256C232.735 63.9333 232.37 63.549 232.244 62.3442C232.092 60.8967 231.961 60.8303 229.237 60.8248C222.489 60.8119 215.847 53.8423 218.105 49.1457C219.528 46.1855 223.883 44.9394 227.281 46.5202ZM174.303 60.6513C174.673 63.3755 174.012 65.262 173.46 63.0559C173.27 62.2918 173.094 60.5375 173.071 59.157C173.02 56.1131 173.818 57.0814 174.303 60.6513ZM223.608 60.3501C224.448 60.764 225.135 61.4177 225.135 61.8031C225.135 62.1886 225.53 62.4998 226.012 62.4953C226.761 62.4881 226.779 62.4083 226.138 61.9532C225.626 61.59 226.344 61.479 228.393 61.6045C231.273 61.7814 231.399 61.8511 231.38 63.2617C231.363 64.5151 231.574 64.7349 232.791 64.7349C236.103 64.7349 237.135 67.1116 235.084 70.0133C233.912 71.6705 234.179 72.1892 236.56 72.8943C237.622 73.2094 237.698 73.4945 237.562 76.6393L237.414 80.0429L233.699 81.7654C230.2 83.388 229.912 83.6563 228.755 86.3828C228.079 87.9753 227.368 89.2778 227.175 89.2778C226.431 89.2778 224.022 82.7371 224.346 81.6009C224.615 80.6582 224.369 80.3425 222.966 79.8271C220.421 78.8922 217.725 75.5867 216.858 72.3415C215.97 69.0143 215.943 67.9087 216.657 64.2044C217.138 61.7089 217.352 61.3792 218.536 61.3123C219.717 61.2453 219.742 61.208 218.745 60.9943C217.405 60.7071 217.402 60.6825 218.395 58.5451L219.171 56.8734L220.626 58.2355C221.426 58.9846 222.767 59.9362 223.608 60.3501ZM171.515 64.1888C171.814 64.8085 171.905 65.5894 171.719 65.9241C171.533 66.2593 171.692 66.7519 172.072 67.0196C172.548 67.3554 172.573 67.5093 172.152 67.5155C171.799 67.5205 171.66 67.9349 171.822 68.5C171.985 69.0661 171.452 68.7103 170.554 67.6544C169.701 66.6526 169.009 65.3975 169.016 64.8654C169.022 64.2859 169.349 64.6244 169.83 65.711C170.272 66.7078 170.856 67.5238 171.129 67.5238C171.402 67.5238 171.261 66.9053 170.816 66.1489C169.914 64.6172 169.75 63.0615 170.49 63.0615C170.756 63.0615 171.217 63.5685 171.515 64.1888ZM240.719 67.1362C239.828 68.1279 239.63 67.2522 240.292 65.2436L240.918 63.3404L241.085 64.9424C241.176 65.8231 241.012 66.8104 240.719 67.1362ZM217.697 65.2927C217.697 66.0596 217.811 66.3737 217.95 65.9899C218.089 65.6067 218.089 64.9792 217.95 64.5954C217.811 64.2122 217.697 64.5257 217.697 65.2927ZM220.625 65.0138C220.625 65.1672 220.738 65.2927 220.875 65.2927C221.013 65.2927 221.126 65.1672 221.126 65.0138C221.126 64.8604 221.013 64.7349 220.875 64.7349C220.738 64.7349 220.625 64.8604 220.625 65.0138ZM224.75 66.4083C224.75 67.482 224.854 67.9215 224.979 67.3844C225.106 66.8472 225.106 65.9693 224.979 65.4321C224.854 64.895 224.75 65.3345 224.75 66.4083ZM178.025 65.5716C178.025 65.725 178.138 65.8505 178.276 65.8505C178.414 65.8505 178.526 65.725 178.526 65.5716C178.526 65.4182 178.414 65.2927 178.276 65.2927C178.138 65.2927 178.025 65.4182 178.025 65.5716ZM243.981 67.8122C244.453 68.6143 244.992 71.241 245.238 73.9418C245.727 79.3067 246.291 80.6481 248.403 81.4681C249.751 81.9908 249.817 82.1269 249.109 82.9156C248.047 84.0975 244.667 84.5282 242.61 83.7439C240.564 82.9641 238.166 79.3379 238.166 77.0264C238.166 73.7153 239.296 69.5391 240.608 68.003C242.255 66.0752 242.936 66.0368 243.981 67.8122ZM219.408 68.037C218.578 69.0583 218.585 69.1364 219.548 69.7104C220.104 70.0417 220.856 70.3039 221.218 70.2933C221.581 70.2821 221.386 69.9687 220.785 69.596C219.934 69.0684 219.8 68.7025 220.183 67.9422C220.828 66.6609 220.493 66.7022 219.408 68.037ZM183.147 75.2102C186.575 80.5383 192.014 86.3137 195.303 88.1148C196.655 88.8555 198.874 89.5807 200.234 89.7262L202.706 89.9906L202.398 92.8415C202.229 94.4095 202.088 97.4494 202.085 99.5969L202.081 103.501L194.725 103.434L187.368 103.366L184.647 100.696C180.455 96.5826 176.684 91.1625 174.237 85.7347C173.012 83.0193 172.011 80.3899 172.011 79.8912C172.011 78.8839 178.934 70.8706 179.804 70.8706C180.108 70.8706 181.612 72.8234 183.147 75.2102ZM226.388 73.4733C225.574 74.1995 225.551 74.3044 226.263 74.0311C226.745 73.8459 227.14 73.9524 227.14 74.2676C227.14 74.5833 227.366 74.6859 227.641 74.4963C228.223 74.0963 228.323 72.5356 227.767 72.5618C227.56 72.5713 226.94 72.9818 226.388 73.4733ZM222.755 80.5238C223.237 80.7173 223.632 81.26 223.632 81.7303C223.632 82.7287 223.391 82.7789 222.151 82.0398C221.392 81.588 221.123 81.8 220.561 83.2949C220.19 84.2844 219.939 85.2829 220.004 85.5127C220.07 85.7425 219.898 85.931 219.622 85.931C219.336 85.931 219.121 84.2448 219.121 81.9885V78.046L220.5 79.1086C221.257 79.6932 222.273 80.3302 222.755 80.5238ZM239.168 82.5798C239.168 83.9916 233.084 89.386 232.378 88.6001C232.275 88.4846 231.846 87.5229 231.425 86.4631L230.66 84.5365L230.969 87.0466C231.139 88.4271 231.424 89.7391 231.603 89.9622C231.782 90.1853 233.924 88.889 236.364 87.0823L240.799 83.7969L244.771 85.6616C249.876 88.0573 253.274 90.5016 255.516 93.3887C257.614 96.0918 262.001 105.941 264.139 112.749C266.228 119.401 268.364 130.307 267.971 132.304C267.409 135.152 265.487 137.009 261.099 138.944C258.822 139.948 254.298 142.111 251.044 143.75C247.79 145.389 245.045 146.73 244.944 146.73C244.713 146.73 240.171 136.644 240.171 136.13C240.171 135.922 241.027 135.466 242.074 135.117C244.973 134.15 248.55 131.262 250.245 128.52C253.044 123.993 255.772 112.668 255.648 106.09C255.595 103.289 255.515 103.556 254.915 108.522C253.12 123.383 250.308 129.912 244.247 133.295C240.017 135.655 217.926 141.082 215.408 140.378C214.602 140.153 213.864 139.086 212.961 136.839C210.399 130.47 210.415 130.616 212.164 129.55C216.374 126.985 219.872 124.113 225.135 118.899L230.899 113.19L230.938 106.394C230.959 102.655 231.139 98.9694 231.338 98.2025C231.666 96.9351 231.643 96.9078 231.09 97.9007C230.719 98.5656 230.465 101.333 230.439 104.968C230.401 110.524 230.339 110.884 229.556 110.1C228.028 108.569 227.141 105.638 227.111 102.023C227.095 100.075 226.878 97.4773 226.628 96.2502C226.288 94.5807 226.219 95.5284 226.352 100.015L226.531 106.011L221.951 100.573C219.432 97.5816 216.059 93.5906 214.456 91.7042L211.541 88.2737H213.202C214.116 88.2737 216.179 87.8481 217.786 87.3283C220.666 86.3962 220.726 86.4001 221.856 87.5821L223.003 88.7813L223.273 87.2167C223.61 85.2667 223.29 84.797 222.744 86.4397C222.338 87.6624 222.331 87.663 221.435 86.5608C220.435 85.3308 220.724 83.142 221.886 83.142C222.652 83.142 224.566 85.7748 225.841 88.5805C226.294 89.5773 226.863 90.3933 227.105 90.3933C227.348 90.3933 228.256 88.9927 229.124 87.2809C230.739 84.0953 232.935 82.4554 236.913 81.4642C238.741 81.009 239.168 81.2205 239.168 82.5798ZM208.569 89.2778C214.392 100.259 218.272 110.346 219.804 118.481C220.465 121.988 220.45 122.176 219.431 123.236C217.803 124.93 212.687 128.215 211.056 128.613C209.981 128.877 209.599 129.294 209.599 130.208C209.599 130.89 209.79 131.685 210.025 131.977C210.259 132.268 210.813 133.551 211.255 134.827L212.06 137.146L210.166 137.99C207.642 139.114 204.587 139.725 204.587 139.106C204.587 138.832 205.305 138.307 206.183 137.938C207.061 137.569 207.644 137.117 207.479 136.933C207.314 136.75 206.723 136.871 206.166 137.203C205.61 137.535 204.632 137.795 203.994 137.782C202.97 137.762 203.04 137.628 204.587 136.65L206.341 135.541L204.587 135.863C202.914 136.17 202.88 136.144 203.836 135.298C204.387 134.81 205.266 134.094 205.79 133.707C206.709 133.027 206.711 132.949 205.85 131.485L204.957 129.968L206.308 130.54C207.052 130.855 208.039 131.101 208.504 131.086C208.969 131.072 208.234 130.576 206.872 129.984C205.51 129.392 204.274 129.044 204.125 129.21C203.976 129.375 204.258 130.293 204.75 131.248C205.499 132.7 205.531 133.057 204.946 133.421C204.561 133.661 203.703 134.35 203.039 134.952L201.831 136.048L202.787 138.042C203.925 140.417 205.289 140.598 209.594 138.944C211.107 138.362 212.359 137.931 212.377 137.986C212.394 138.04 212.796 138.775 213.271 139.619C214.269 141.396 215.338 141.504 220.965 140.405L224.564 139.702L225.581 145.866C226.141 149.256 226.746 153.225 226.927 154.687L227.256 157.344L224.066 160.906C218.844 166.736 216.147 172.639 213.217 184.66C211.136 193.197 209.797 200.908 209.1 208.367L208.526 214.502L210.326 216.186C211.877 217.636 212.084 218.104 211.821 219.569C211.56 221.021 211.042 221.499 208.278 222.839C203.936 224.944 204.139 225.832 209.343 227.481C211.539 228.177 214.487 228.897 215.895 229.081L218.456 229.416L219.415 225.065L220.374 220.715L222.587 220.119L224.801 219.522L227.619 212.435C229.17 208.536 230.566 205.205 230.721 205.031C230.877 204.859 231.157 207.044 231.344 209.888C232.066 220.853 234.007 230.614 236.727 236.963C237.551 238.886 239.535 242.4 241.136 244.772C245.347 251.012 246.247 253.242 246.247 257.432C246.247 264.508 243.512 270.741 237.227 277.987C226.979 289.802 213.242 294.195 189.552 293.232C180.775 292.876 175.357 291.834 169.499 289.373C158.668 284.823 152.634 279.184 147.164 268.502C143.851 262.03 142.731 257.842 142.717 251.874C142.707 247.4 142.875 246.452 144.271 243.152C146.234 238.509 148.756 234.365 153.732 227.61C164.601 212.854 171.912 195.75 175.192 177.409L176.338 170.994L183.088 170.666C187.297 170.461 190.868 169.976 192.577 169.377C195.674 168.292 199.736 165.24 200.613 163.339C201.007 162.486 200.48 162.828 199.009 164.38C197.805 165.65 196.048 167.122 195.106 167.65C191.172 169.855 179.765 170.825 172.512 169.573C164.621 168.209 164.236 168.221 161.14 169.907C159.355 170.878 156.971 172.937 154.91 175.286C152.977 177.489 150.605 179.568 149.275 180.223C142.377 183.618 132.8 181.233 126.886 174.645C123.719 171.117 121.71 166.814 120.895 161.811C119.736 154.697 122.03 149.319 129.71 141.144C144.219 125.702 159.863 114.748 176.549 108.35C184.806 105.184 189.786 104.128 196.645 104.091L202.484 104.059L202.813 99.318C203.22 93.4356 204.043 85.5233 204.426 83.7986C204.789 82.1687 204.826 82.2183 208.569 89.2778ZM220.968 100.889C226.016 107.123 230.132 112.394 230.113 112.603C230.082 112.934 228.29 114.67 222.661 119.82L221.285 121.078L219.961 115.453C218.18 107.89 214.841 99.2678 210.336 90.5969L206.607 83.4209L209.198 86.4888C210.622 88.1761 215.919 94.6566 220.968 100.889ZM175.036 122.151C174.75 122.744 174.517 124.328 174.517 125.67C174.517 131.069 177.642 131.546 177.925 126.191C178.154 121.863 176.372 119.371 175.036 122.151ZM241.377 141.775C242.671 144.878 243.662 147.485 243.579 147.567C243.496 147.649 241.567 148.753 239.292 150.02C237.017 151.286 233.677 153.33 231.871 154.56C230.064 155.791 228.4 156.669 228.172 156.512C227.945 156.356 227.6 154.781 227.407 153.013C227.1 150.214 226.155 144.475 225.398 140.822C225.174 139.745 225.589 139.556 230.784 138.369C233.879 137.662 236.863 136.885 237.414 136.643C237.965 136.401 238.553 136.187 238.72 136.167C238.887 136.149 240.083 138.671 241.377 141.775ZM133.035 156.52C131.75 157.522 131.554 159.44 132.688 159.924C133.733 160.37 135.505 158.488 135.322 157.124C135.126 155.655 134.393 155.462 133.035 156.52ZM134.924 157.26C134.924 157.963 133.453 159.224 133.096 158.827C132.583 158.256 133.349 156.771 134.157 156.771C134.579 156.771 134.924 156.991 134.924 157.26ZM109.571 188.213C114.282 190.78 118.642 193.056 119.263 193.27C119.942 193.505 120.39 194.106 120.39 194.781C120.39 195.398 121.049 196.636 121.855 197.533C123.916 199.826 126.743 199.816 128.817 197.508L130.304 195.854L144.016 199.618L157.728 203.382L157.978 211.173C158.189 217.713 158.288 218.472 158.6 215.897C158.805 214.209 158.974 210.55 158.976 207.764L158.981 202.699L161.361 200.83C162.671 199.802 165.061 197.86 166.673 196.514C168.286 195.169 169.683 194.155 169.778 194.261C169.874 194.366 168.99 196.973 167.814 200.053C164.984 207.465 159.431 217.777 154.927 223.985C144.639 238.164 141.903 243.56 141.548 250.371C141.195 257.157 143.195 264.063 147.698 271.612C148.684 273.264 149.36 274.761 149.2 274.939C149.041 275.116 145.312 275.333 140.915 275.421C136.518 275.509 129.311 275.653 124.901 275.741L116.882 275.901V274.061C116.882 272.549 116.354 271.647 113.934 269.019C108.546 263.171 105.187 253.231 104.145 240.042L103.871 236.577L106.098 235.481C110.192 233.466 109.494 229.766 104.863 228.942C101.917 228.418 101.728 228.107 102.853 225.649C104.027 223.087 104.148 219.269 103.125 217.068C102.07 214.796 99.0008 211.992 97.5694 211.992H96.334V198.884V185.776H97.4993C98.1403 185.776 99.0985 185.289 99.6292 184.693C100.16 184.098 100.687 183.596 100.8 183.578C100.914 183.56 104.861 185.645 109.571 188.213ZM252.332 188.331C252.544 190.147 252.754 195.774 252.8 200.836C252.914 213.561 251.915 217.383 245.93 227.108C242.577 232.557 241.953 234.617 241.938 240.295C241.925 244.721 241.894 244.846 241.083 243.652C235.715 235.743 232.794 224.462 231.875 208.088L231.546 202.231L234.981 194.701L238.416 187.17L241.791 186.755C243.647 186.527 246.466 185.992 248.055 185.566C249.645 185.139 251.171 184.844 251.447 184.91C251.723 184.975 252.121 186.515 252.332 188.331ZM100.178 214.338C100.775 214.949 101.757 216.723 102.359 218.28C104.06 222.681 103.103 226.434 99.6899 228.751C96.6483 230.815 91.7102 229.782 89.6128 226.643C87.4658 223.43 88.3088 217.023 91.1514 214.951C94.5759 212.453 98.0977 212.215 100.178 214.338ZM216.247 219.623C217.966 220.139 219.437 220.608 219.516 220.667C219.595 220.725 219.386 221.442 219.051 222.261C218.622 223.308 218.208 223.634 217.654 223.361C217.22 223.148 215.907 222.705 214.736 222.376C212.871 221.853 212.606 221.586 212.606 220.232C212.606 218.406 212.338 218.45 216.247 219.623ZM102.849 232.631C101.817 232.999 101.773 233.086 102.599 233.124C103.15 233.15 103.939 232.928 104.353 232.631C105.231 231.999 104.621 231.999 102.849 232.631ZM90.4548 233.575C90.9424 233.717 91.619 233.707 91.9583 233.554C92.2976 233.401 91.8987 233.286 91.0717 233.297C90.2448 233.308 89.9671 233.433 90.4548 233.575ZM98.7206 233.583C99.3441 233.716 100.246 233.711 100.725 233.572C101.204 233.432 100.694 233.323 99.5917 233.329C98.4891 233.335 98.0972 233.449 98.7206 233.583ZM94.2101 234.14C94.8335 234.274 95.7356 234.269 96.2148 234.129C96.6939 233.99 96.1837 233.881 95.0811 233.887C93.9785 233.893 93.5866 234.007 94.2101 234.14ZM313.474 242.991C321.023 245.854 323.948 258.772 318.485 265.12C317.029 266.813 312.58 268.887 310.407 268.887C305.652 268.887 300.689 265.263 298.819 260.425C296.834 255.289 298.263 248.37 301.958 245.234C305.671 242.082 309.242 241.386 313.474 242.991ZM146.451 248.835C146.451 249.445 149.848 252.657 152.392 254.452C158.357 258.663 174.066 262.718 191.204 264.472C200.792 265.454 217.654 264.856 223.131 263.341C230.608 261.273 238.955 257.049 239.561 255.026C239.682 254.622 238.572 255.081 237.094 256.047C228.032 261.972 219.226 264.072 203.836 263.981C178.697 263.833 155.794 258.312 148.565 250.66C147.403 249.428 146.451 248.607 146.451 248.835ZM87.8141 253.269C87.8141 253.678 87.9645 253.845 88.1484 253.641C88.3318 253.436 88.3318 253.102 88.1484 252.897C87.9645 252.693 87.8141 252.86 87.8141 253.269ZM324.967 268.366C328.299 269.352 329.866 273.037 328.001 275.499C325.839 278.351 312.276 280.606 303.843 279.515C295.179 278.394 291.29 276.432 291.29 273.182C291.29 270.59 293.449 269.404 300.055 268.367C302.87 267.926 304.092 267.991 306.278 268.698C309.364 269.696 313.02 269.438 315.203 268.067C316.696 267.128 321.256 267.268 324.967 268.366ZM80.6048 270.664C81.0623 271.488 85.4837 273.771 88.5323 274.757C92.4094 276.011 103.579 275.714 106.56 274.278C109.24 272.986 108.618 272.634 105.582 273.724C100.08 275.702 88.5679 274.572 82.7748 271.486C81.4362 270.772 80.4594 270.403 80.6048 270.664ZM324.702 270.797C323.893 273.143 315.099 275.302 306.576 275.246C299.365 275.2 296.226 274.492 295.067 272.652C294.44 271.654 294.297 271.604 294.297 272.376C294.297 276.933 313.776 277.449 323.046 273.139C324.741 272.35 325.84 270.898 325.243 270.234C325.105 270.08 324.862 270.334 324.702 270.797ZM153.783 279.94C156.926 283.413 158.747 284.874 162.739 287.129C173.83 293.391 177.878 294.285 194.814 294.214C211.216 294.146 218.145 292.838 226.388 288.255C230.289 286.087 236.092 281.213 238.706 277.91L240.771 275.302L242.472 277.533C246.874 283.305 250.696 294.314 253.67 309.78L254.722 315.254L253.117 317.74C248.855 324.346 239.015 329.704 224.634 333.251C208.021 337.349 185.343 338.491 169.326 336.038C159.738 334.569 147.222 329.898 140.108 325.135C136.784 322.909 130.972 317.124 130.43 315.502C130.211 314.847 130.331 313.262 130.707 311.837C131.071 310.457 132.164 305.185 133.137 300.123C135.275 288.993 137.593 283.125 141.274 279.518C143.37 277.465 146.83 275.724 149.022 275.62C149.471 275.598 151.613 277.542 153.783 279.94ZM118.281 280.304C117.402 282.288 116.647 283.857 116.602 283.79C116.557 283.723 116.63 282.1 116.762 280.182C116.997 276.778 117.036 276.696 118.441 276.696H119.88L118.281 280.304ZM321.518 285.481C321.856 291.986 323.408 303.032 324.672 307.933C325.842 312.47 328.299 317.6 333.346 326.051C335.852 330.246 338.027 334.526 338.243 335.687C338.838 338.889 338.721 343.531 337.942 347.536C337.371 350.475 336.874 351.552 335.319 353.225C332.861 355.868 326.328 358.275 317.937 359.629C312.711 360.472 311.016 360.514 304.912 359.952C292.126 358.775 284.555 355.88 282.919 351.544C282.492 350.413 281.9 347.92 281.603 346.002C280.45 338.559 282.857 331.125 288.783 323.83C297.359 313.27 300.237 303.613 299.704 287.187L299.474 280.084L306.533 280.382C310.416 280.545 314.945 280.441 316.599 280.151C318.253 279.859 319.967 279.591 320.407 279.553C321.077 279.496 321.258 280.464 321.518 285.481ZM243.97 284.784C243.758 285.398 243.346 286.607 243.056 287.472C242.322 289.652 238.809 292.494 232.904 295.686C220.421 302.432 202.009 305.707 185.793 304.066C173.607 302.832 152.156 297.2 145.596 293.511C142.461 291.749 141.441 290.726 140.224 288.13C139.732 287.078 139.44 286.812 139.438 287.414C139.433 289.003 142.432 292.293 145.412 293.967C150.426 296.784 163.884 301.136 174.768 303.461C190.127 306.742 207.582 305.746 223.528 300.681C235.714 296.81 245.298 289.609 244.549 284.886C244.362 283.706 244.344 283.703 243.97 284.784ZM85.3228 288.214C88.4175 289.413 90.2633 289.713 95.9622 289.945C104.193 290.281 107.775 289.64 112.53 286.981L115.946 285.07L113.812 289.529L111.677 293.988H91.6656C72.6807 293.988 71.6889 293.938 72.3369 293.012C72.7128 292.475 74.3426 290.353 75.9589 288.297L78.8972 284.558L80.2379 285.66C80.9751 286.267 83.2635 287.416 85.3228 288.214ZM294.319 294.356C296.722 296.594 298.307 298.49 298.307 299.126C298.307 301.633 296.576 308.515 295.04 312.116C293.331 316.124 289.513 322.108 286.964 324.775L285.527 326.279L268.825 326.676C253.891 327.031 252.147 327.167 252.35 327.961C252.474 328.45 258.231 339.383 265.143 352.258C272.055 365.132 277.604 375.784 277.475 375.928C277.204 376.229 206.397 377.57 187.971 377.622L175.616 377.657L175.332 371.939C175.175 368.794 174.918 359.791 174.76 351.93L174.472 337.637L185.646 337.911C206.037 338.411 226.364 335.107 239.847 329.099C243.924 327.282 245.389 326.898 248.234 326.898H251.681L250.857 324.973L250.032 323.049L251.829 320.835C255.479 316.339 255.443 316.498 254.225 310.037C253.293 305.097 250.553 293.452 249.826 291.338C249.636 290.788 253.866 290.641 269.959 290.641H290.332L294.319 294.356ZM133.216 294.964C133.067 295.5 132.626 297.572 132.238 299.566C131.849 301.56 130.904 305.962 130.139 309.349C128.789 315.324 128.774 315.55 129.637 317.016C130.682 318.791 136.988 324.184 140.639 326.424L143.194 327.993L119.263 328.003C106.101 328.009 95.3317 327.893 95.3317 327.745C95.3317 327.507 106.7 304.341 110.461 296.916L111.944 293.988H122.716C132.745 293.988 133.469 294.055 133.216 294.964ZM94.2457 329.064C94.1539 329.335 88.4406 340.88 81.5495 354.719L69.0201 379.881L55.9897 379.907C48.8229 379.921 33.9386 380.153 22.9138 380.423C11.8885 380.693 2.80123 380.839 2.72004 380.749C2.63835 380.658 6.13353 376.093 10.4867 370.604C14.8399 365.116 24.0194 353.413 30.8849 344.598L43.3686 328.571H68.8908C83.4594 328.571 94.3414 328.782 94.2457 329.064ZM287.03 333.901C288.576 335.346 293.767 337.853 296.552 338.5C301.232 339.586 313.068 340.433 319.105 340.114C325.154 339.795 331.402 338.31 332.557 336.917C333.011 336.368 332.94 336.294 332.226 336.574C331.725 336.771 329.018 337.463 326.212 338.113C317.5 340.127 299.612 339.355 292.81 336.67C291.579 336.184 289.549 335.151 288.3 334.375C287.05 333.598 286.479 333.385 287.03 333.901Z" fill="black" stroke="black"/>
</svg>
