<?xml version="1.0" encoding="utf-8"?>
<!-- Generator: Adobe Illustrator 25.4.1, SVG Export Plug-In . SVG Version: 6.00 Build 0)  -->
<svg version="1.1" id="Camada_1" xmlns="http://www.w3.org/2000/svg" xmlns:xlink="http://www.w3.org/1999/xlink" x="0px" y="0px"
	 viewBox="0 0 304.1 99.7" style="enable-background:new 0 0 304.1 99.7;" xml:space="preserve">
<style type="text/css">
	.st0{fill:#FFFFFF;}
</style>
<g>
	<path class="st0" d="M124.6,49.9c0,3.6,0.8,6.3,2.5,8.5c1.7,2,4,3,7,3c1.3,0,2.4,0,3.2-0.1c1-0.1,1.7-0.2,2.3-0.4V40.8
		c-0.7-0.5-1.7-1-2.9-1.3c-1.2-0.5-2.4-0.7-3.7-0.7c-3,0-5.1,1-6.4,3C125.2,43.9,124.6,46.5,124.6,49.9z M147.7,66.5
		c-1.5,0.5-3.6,1-6.1,1.3c-2.4,0.4-4.9,0.6-7.6,0.6c-2.7,0-5.2-0.5-7.4-1.3c-2.1-0.8-4-2-5.6-3.6c-1.5-1.5-2.7-3.5-3.6-5.7
		s-1.2-4.8-1.2-7.6c0-2.7,0.4-5.2,1-7.5c0.7-2.3,1.8-4.2,3.1-5.8c1.3-1.5,3-2.9,4.9-3.7c1.9-0.8,4.2-1.3,6.5-1.3
		c1.7,0,3.2,0.2,4.5,0.6c1.3,0.4,2.4,0.8,3.3,1.3V17.1l8.1-1.3L147.7,66.5L147.7,66.5z M166,67.4h-8.1V32.7h8.1V67.4z M167,22.4
		c0,1.5-0.5,2.7-1.4,3.6c-1,0.8-2.1,1.3-3.5,1.3c-1.4,0-2.5-0.5-3.6-1.3c-1-0.8-1.4-2.1-1.4-3.6c0-1.5,0.5-2.7,1.4-3.7
		c1-0.8,2.1-1.3,3.6-1.3c1.3,0,2.5,0.5,3.5,1.3C166.4,19.7,167,20.9,167,22.4z M176.4,33.8c1.5-0.5,3.6-0.8,6.1-1.3
		c2.5-0.4,5.2-0.6,8.2-0.6c2.9,0,5.2,0.4,7.1,1.2c1.9,0.7,3.5,1.8,4.5,3.2c1.2,1.4,1.9,3.1,2.4,5.1c0.5,1.9,0.7,4.2,0.7,6.4v19.6
		h-8.1V49.1c0-1.9-0.1-3.5-0.4-4.8c-0.2-1.3-0.6-2.4-1.2-3.2c-0.5-0.8-1.3-1.4-2.3-1.8c-1-0.4-2.1-0.6-3.5-0.6
		c-1.1,0-2.1,0.1-3.2,0.2c-1.1,0.1-1.9,0.2-2.5,0.4v28.1h-8.1V33.8H176.4z M221.7,49.9c0,3.6,0.8,6.3,2.5,8.5c1.7,2,4,3,7,3
		c1.3,0,2.4,0,3.2-0.1c1-0.1,1.7-0.2,2.3-0.4V40.8c-0.7-0.5-1.7-1-2.9-1.3c-1.2-0.5-2.4-0.7-3.7-0.7c-3,0-5.1,1-6.4,3
		C222.3,43.9,221.7,46.5,221.7,49.9z M244.8,66.5c-1.5,0.5-3.6,1-6.1,1.3c-2.4,0.4-4.9,0.6-7.6,0.6c-2.7,0-5.2-0.5-7.4-1.3
		s-4-2-5.6-3.6c-1.5-1.5-2.7-3.5-3.6-5.7s-1.2-4.8-1.2-7.6c0-2.7,0.4-5.2,1-7.5c0.7-2.3,1.8-4.2,3.1-5.8c1.3-1.5,3-2.9,4.9-3.7
		c1.9-0.8,4.2-1.3,6.5-1.3c1.7,0,3.2,0.2,4.5,0.6c1.3,0.4,2.4,0.8,3.3,1.3V17.1l8.1-1.3L244.8,66.5L244.8,66.5z M263.2,67.4h-8.1
		V32.7h8.1V67.4z M264.1,22.4c0,1.5-0.5,2.7-1.4,3.6s-2.1,1.3-3.5,1.3c-1.4,0-2.5-0.5-3.6-1.3c-1.1-0.8-1.4-2.1-1.4-3.6
		c0-1.5,0.5-2.7,1.4-3.7c1-0.8,2.1-1.3,3.6-1.3c1.3,0,2.5,0.5,3.5,1.3C263.5,19.7,264.1,20.9,264.1,22.4z M273.5,33.8
		c1.5-0.5,3.6-0.8,6.1-1.3c2.5-0.4,5.2-0.6,8.2-0.6c2.9,0,5.2,0.4,7.1,1.2c1.9,0.7,3.5,1.8,4.5,3.2c1.2,1.4,1.9,3.1,2.4,5.1
		c0.5,1.9,0.7,4.2,0.7,6.4v19.6h-8.1V49.1c0-1.9-0.1-3.5-0.4-4.8c-0.2-1.3-0.6-2.4-1.2-3.2c-0.5-0.8-1.3-1.4-2.3-1.8
		c-1-0.4-2.1-0.6-3.5-0.6c-1.1,0-2.1,0.1-3.2,0.2s-1.9,0.2-2.5,0.4v28.1h-8.1V33.8H273.5z"/>
	<path class="st0" d="M95.2,48.5c0-25.7-20.8-46.3-46.3-46.3S2.5,22.9,2.5,48.5s20.8,46.3,46.3,46.3c0.3,0,0.6,0,0.7,0l0,0h45.6
		V49.3l0,0C95.1,49.1,95.2,48.8,95.2,48.5z M48.8,86.7c-21.1,0-38.1-17.1-38.1-38.1s17.1-38.1,38.1-38.1s38.1,17.1,38.1,38.1
		c0,0.3,0,0.6,0,0.7l0,0C86.5,69.6,70,86.1,49.6,86.5l0,0C49.4,86.7,49.1,86.7,48.8,86.7z"/>
	<path class="st0" d="M58.8,46c-5.2-3.2-11.6-5.4-11.6-5.4s-3.3-1.3-2.6-4c0.7-2.6,5.9-3.9,14.5-0.7l2.1-7.2c0,0-4-1.7-9.3-2v-5.7
		h-6.3v6.3c-1.9,0.4-3.9,1-5.7,2.1c-7.6,5.7-8.2,16.8,9,21.6c8.6,2.1,4.3,13.8-12.3,5.7l-1.7,7.6c0,0,4.6,2.4,10.6,2.9V73h6.3v-6.3
		c1.3-0.3,2.6-0.7,3.9-1.1C66,61,64,49.1,58.8,46z"/>
	<g>
		<path class="st0" d="M122.4,88.5c0-0.9,0.1-1.6,0.4-2.3c0.2-0.6,0.6-1.2,1-1.6c0.4-0.4,0.9-0.8,1.4-1c0.5-0.2,1-0.3,1.6-0.3
			c1.2,0,2.2,0.4,2.9,1.2c0.7,0.8,1.1,2,1.1,3.6c0,0.1,0,0.2,0,0.3s0,0.2,0,0.3h-6.9c0,1.2,0.3,2.1,0.9,2.8s1.4,1,2.7,1
			c0.7,0,1.2-0.1,1.6-0.2c0.4-0.1,0.7-0.2,0.9-0.3L130,93c-0.2,0.1-0.5,0.2-1,0.4c-0.5,0.1-1.1,0.2-1.7,0.2c-0.9,0-1.6-0.1-2.2-0.4
			c-0.6-0.3-1.1-0.6-1.5-1.1s-0.7-1-0.9-1.6S122.4,89.2,122.4,88.5z M129.4,87.7c0-1-0.3-1.8-0.7-2.4c-0.5-0.6-1.1-0.9-1.9-0.9
			c-0.4,0-0.8,0.1-1.2,0.3c-0.3,0.2-0.7,0.4-0.9,0.7c-0.3,0.3-0.5,0.6-0.6,1s-0.2,0.8-0.3,1.2H129.4z"/>
		<path class="st0" d="M141.2,93.1c-0.4,0.1-0.8,0.2-1.4,0.4c-0.6,0.1-1.3,0.2-2.2,0.2c-0.7,0-1.4-0.1-2-0.4c-0.6-0.2-1.1-0.6-1.5-1
			c-0.4-0.4-0.8-1-1-1.6s-0.4-1.3-0.4-2.1c0-0.7,0.1-1.4,0.3-2.1s0.5-1.2,0.9-1.6c0.4-0.5,0.8-0.8,1.4-1.1s1.2-0.4,1.9-0.4
			c0.6,0,1.2,0.1,1.7,0.3s0.8,0.4,1,0.5v-5.3l1.2-0.2V93.1z M140,85.3c-0.1-0.1-0.3-0.2-0.4-0.3c-0.2-0.1-0.4-0.2-0.6-0.3
			c-0.2-0.1-0.5-0.2-0.7-0.2c-0.3-0.1-0.5-0.1-0.8-0.1c-0.6,0-1.1,0.1-1.5,0.3c-0.4,0.2-0.7,0.5-1,0.9c-0.3,0.4-0.4,0.8-0.6,1.3
			c-0.1,0.5-0.2,1-0.2,1.5c0,1.3,0.3,2.3,1,3c0.6,0.7,1.5,1,2.6,1c0.6,0,1.1,0,1.5-0.1c0.4-0.1,0.7-0.1,0.8-0.2V85.3z"/>
		<path class="st0" d="M152.1,93c-0.4,0.1-0.9,0.2-1.5,0.3s-1.4,0.2-2.3,0.2c-0.7,0-1.3-0.1-1.8-0.3c-0.5-0.2-0.9-0.5-1.2-0.9
			c-0.3-0.4-0.5-0.9-0.7-1.4c-0.1-0.6-0.2-1.2-0.2-1.8v-5.5h1.2v5.1c0,0.7,0.1,1.3,0.2,1.8c0.1,0.5,0.3,0.9,0.5,1.2s0.5,0.5,0.9,0.6
			c0.4,0.1,0.8,0.2,1.3,0.2c0.6,0,1.1,0,1.5-0.1c0.4-0.1,0.7-0.1,0.8-0.2v-8.6h1.2V93z"/>
		<path class="st0" d="M159.4,93.6c-0.8,0-1.4-0.1-2-0.4c-0.6-0.2-1.1-0.6-1.5-1c-0.4-0.4-0.7-1-0.9-1.6c-0.2-0.6-0.3-1.3-0.3-2.1
			c0-0.8,0.1-1.5,0.3-2.1c0.2-0.6,0.5-1.2,0.9-1.6s0.9-0.8,1.4-1.1s1.2-0.4,1.9-0.4c0.5,0,1,0,1.5,0.1c0.5,0.1,0.8,0.2,1.1,0.3
			l-0.3,1.1c-0.3-0.1-0.5-0.2-0.9-0.3c-0.3-0.1-0.7-0.1-1.3-0.1c-1.1,0-1.9,0.4-2.5,1.1s-0.8,1.7-0.8,3c0,0.6,0.1,1.1,0.2,1.6
			c0.1,0.5,0.3,0.9,0.6,1.3c0.3,0.3,0.7,0.6,1.1,0.8c0.4,0.2,1,0.3,1.6,0.3c0.5,0,1-0.1,1.3-0.2c0.4-0.1,0.6-0.2,0.8-0.3L162,93
			c-0.2,0.1-0.6,0.2-1.1,0.4C160.4,93.5,159.9,93.6,159.4,93.6z"/>
		<path class="st0" d="M167,83.3c0.6,0,1.2,0.1,1.6,0.3c0.4,0.2,0.8,0.4,1.1,0.8c0.3,0.3,0.5,0.7,0.6,1.1c0.1,0.4,0.2,0.9,0.2,1.4
			v6.2c-0.1,0-0.3,0.1-0.6,0.1c-0.2,0-0.5,0.1-0.8,0.1c-0.3,0.1-0.7,0.1-1.1,0.1c-0.4,0-0.8,0-1.2,0c-0.5,0-1-0.1-1.4-0.2
			c-0.4-0.1-0.8-0.3-1.1-0.5s-0.6-0.6-0.8-1c-0.2-0.4-0.3-0.9-0.3-1.4c0-0.5,0.1-1,0.3-1.4c0.2-0.4,0.5-0.7,0.9-0.9
			c0.4-0.2,0.8-0.4,1.3-0.5c0.5-0.1,1.1-0.2,1.7-0.2c0.2,0,0.4,0,0.6,0c0.2,0,0.4,0,0.6,0.1c0.2,0,0.3,0.1,0.5,0.1s0.2,0.1,0.3,0.1
			v-0.6c0-0.3,0-0.7-0.1-1c-0.1-0.3-0.2-0.6-0.3-0.9c-0.2-0.3-0.4-0.5-0.7-0.6c-0.3-0.2-0.7-0.2-1.2-0.2c-0.7,0-1.3,0.1-1.6,0.2
			s-0.6,0.2-0.8,0.2l-0.2-1.1c0.2-0.1,0.5-0.2,1-0.3C165.9,83.4,166.4,83.3,167,83.3z M167.2,92.5c0.5,0,0.9,0,1.3,0
			c0.4,0,0.7-0.1,0.9-0.1v-3.5c-0.1-0.1-0.4-0.1-0.7-0.2c-0.3-0.1-0.7-0.1-1.3-0.1c-0.3,0-0.6,0-1,0.1c-0.3,0-0.6,0.1-0.9,0.3
			c-0.3,0.1-0.5,0.3-0.7,0.6s-0.3,0.6-0.3,1c0,0.4,0.1,0.7,0.2,0.9s0.3,0.5,0.5,0.6s0.5,0.3,0.8,0.3
			C166.4,92.4,166.8,92.5,167.2,92.5z"/>
		<path class="st0" d="M177.7,94.1c0.4,0.2,0.6,0.3,0.8,0.6c0.2,0.2,0.3,0.5,0.3,0.9c0,0.2,0,0.3-0.1,0.5c-0.1,0.2-0.1,0.3-0.3,0.5
			c-0.1,0.1-0.3,0.3-0.6,0.3c-0.2,0.1-0.6,0.1-0.9,0.1c-0.3,0-0.5,0-0.8-0.1s-0.5-0.1-0.6-0.2l0.2-0.8c0.1,0.1,0.3,0.1,0.5,0.1
			c0.2,0,0.4,0,0.6,0c0.5,0,0.8-0.2,0.8-0.6c0-0.2-0.1-0.4-0.3-0.5c-0.2-0.1-0.5-0.2-0.8-0.4c0.1-0.2,0.1-0.3,0.2-0.5
			c0.1-0.2,0.2-0.4,0.3-0.6c-1.3-0.2-2.3-0.7-2.9-1.6s-1-2.1-1-3.5c0-0.8,0.1-1.5,0.3-2.1c0.2-0.6,0.5-1.2,0.9-1.6
			c0.4-0.5,0.9-0.8,1.4-1.1c0.6-0.2,1.2-0.4,1.9-0.4c0.5,0,1,0,1.5,0.1c0.5,0.1,0.8,0.2,1.1,0.3l-0.3,1.1c-0.3-0.1-0.5-0.2-0.9-0.3
			c-0.3-0.1-0.7-0.1-1.3-0.1c-1.1,0-1.9,0.4-2.5,1.1c-0.6,0.7-0.8,1.7-0.8,3c0,0.6,0.1,1.1,0.2,1.6c0.1,0.5,0.3,0.9,0.6,1.3
			c0.3,0.3,0.7,0.6,1.1,0.8c0.4,0.2,1,0.3,1.6,0.3c0.5,0,1-0.1,1.3-0.2c0.4-0.1,0.6-0.2,0.8-0.3l0.3,1.1c-0.2,0.1-0.6,0.2-1,0.4
			c-0.5,0.1-1,0.2-1.5,0.2c0,0.1-0.1,0.2-0.1,0.3S177.7,94,177.7,94.1z"/>
		<path class="st0" d="M185.5,83.3c0.6,0,1.2,0.1,1.6,0.3c0.4,0.2,0.8,0.4,1.1,0.8c0.3,0.3,0.5,0.7,0.6,1.1c0.1,0.4,0.2,0.9,0.2,1.4
			v6.2c-0.1,0-0.3,0.1-0.6,0.1c-0.2,0-0.5,0.1-0.8,0.1c-0.3,0.1-0.7,0.1-1.1,0.1c-0.4,0-0.8,0-1.2,0c-0.5,0-1-0.1-1.4-0.2
			c-0.4-0.1-0.8-0.3-1.1-0.5c-0.3-0.2-0.6-0.6-0.8-1c-0.2-0.4-0.3-0.9-0.3-1.4c0-0.5,0.1-1,0.3-1.4c0.2-0.4,0.5-0.7,0.9-0.9
			c0.4-0.2,0.8-0.4,1.3-0.5c0.5-0.1,1.1-0.2,1.7-0.2c0.2,0,0.4,0,0.6,0c0.2,0,0.4,0,0.6,0.1c0.2,0,0.3,0.1,0.5,0.1
			c0.1,0,0.2,0.1,0.3,0.1v-0.6c0-0.3,0-0.7-0.1-1c-0.1-0.3-0.2-0.6-0.3-0.9c-0.2-0.3-0.4-0.5-0.7-0.6c-0.3-0.2-0.7-0.2-1.2-0.2
			c-0.7,0-1.3,0.1-1.6,0.2c-0.4,0.1-0.6,0.2-0.8,0.2l-0.2-1.1c0.2-0.1,0.5-0.2,1-0.3C184.3,83.4,184.8,83.3,185.5,83.3z M187,81.4
			c-0.3,0-0.5,0-0.8-0.1c-0.2-0.1-0.5-0.2-0.7-0.3c-0.2-0.1-0.4-0.2-0.6-0.3s-0.3-0.1-0.4-0.1c-0.3,0-0.5,0.1-0.6,0.3
			c-0.2,0.2-0.3,0.4-0.4,0.6l-0.7-0.3c0.1-0.2,0.1-0.3,0.3-0.5s0.2-0.3,0.4-0.5c0.1-0.2,0.3-0.3,0.5-0.4c0.2-0.1,0.4-0.2,0.7-0.2
			c0.3,0,0.5,0,0.8,0.1c0.2,0.1,0.4,0.2,0.7,0.3c0.2,0.1,0.4,0.2,0.6,0.3s0.3,0.1,0.4,0.1c0.3,0,0.5-0.1,0.6-0.3
			c0.2-0.2,0.3-0.4,0.4-0.6l0.7,0.3c-0.1,0.2-0.1,0.3-0.3,0.5c-0.1,0.2-0.2,0.3-0.4,0.5c-0.1,0.2-0.3,0.3-0.5,0.4
			C187.5,81.4,187.2,81.4,187,81.4z M185.6,92.5c0.5,0,0.9,0,1.3,0c0.4,0,0.7-0.1,0.9-0.1v-3.5c-0.1-0.1-0.4-0.1-0.7-0.2
			c-0.3-0.1-0.7-0.1-1.3-0.1c-0.3,0-0.6,0-1,0.1c-0.3,0-0.6,0.1-0.9,0.3c-0.3,0.1-0.5,0.3-0.7,0.6c-0.2,0.3-0.3,0.6-0.3,1
			c0,0.4,0.1,0.7,0.2,0.9c0.1,0.3,0.3,0.5,0.5,0.6c0.2,0.2,0.5,0.3,0.8,0.3C184.8,92.4,185.2,92.5,185.6,92.5z"/>
		<path class="st0" d="M200.5,88.5c0,0.8-0.1,1.5-0.3,2.1s-0.5,1.2-0.9,1.6c-0.4,0.4-0.9,0.8-1.4,1s-1.1,0.4-1.8,0.4
			c-0.7,0-1.3-0.1-1.8-0.4c-0.5-0.2-1-0.6-1.4-1c-0.4-0.4-0.7-1-0.9-1.6c-0.2-0.6-0.3-1.3-0.3-2.1s0.1-1.5,0.3-2.1
			c0.2-0.6,0.5-1.2,0.9-1.6c0.4-0.4,0.9-0.8,1.4-1c0.5-0.2,1.1-0.4,1.8-0.4c0.7,0,1.3,0.1,1.8,0.4s1,0.6,1.4,1
			c0.4,0.5,0.7,1,0.9,1.6C200.4,87,200.5,87.7,200.5,88.5z M199.2,88.5c0-1.2-0.3-2.2-0.9-2.9c-0.6-0.7-1.3-1.1-2.3-1.1
			c-1,0-1.7,0.4-2.3,1.1s-0.9,1.7-0.9,2.9s0.3,2.2,0.9,2.9s1.3,1.1,2.3,1.1c1,0,1.7-0.4,2.3-1.1C198.9,90.7,199.2,89.7,199.2,88.5z"
			/>
		<path class="st0" d="M211.1,78.6c0.5,0,1,0,1.3,0.1c0.3,0.1,0.6,0.2,0.7,0.2l-0.2,1.1c-0.1-0.1-0.3-0.1-0.6-0.2
			c-0.3-0.1-0.6-0.1-1-0.1c-0.9,0-1.5,0.2-1.9,0.7s-0.6,1.2-0.6,2.1v1h4v1h-4v8.8h-1.2V82.5c0-1.3,0.3-2.2,0.9-2.9
			S209.9,78.6,211.1,78.6z M216.2,80.6c0,0.3-0.1,0.5-0.3,0.7c-0.2,0.2-0.4,0.3-0.6,0.3s-0.5-0.1-0.6-0.3c-0.2-0.2-0.3-0.4-0.3-0.7
			c0-0.3,0.1-0.5,0.3-0.7c0.2-0.2,0.4-0.3,0.6-0.3s0.5,0.1,0.6,0.3S216.2,80.3,216.2,80.6z M215.9,93.4h-1.2v-9.8h1.2V93.4z"/>
		<path class="st0" d="M219.2,83.9c0.4-0.1,0.9-0.2,1.5-0.3c0.6-0.1,1.4-0.2,2.3-0.2c0.7,0,1.4,0.1,1.9,0.3c0.5,0.2,0.9,0.5,1.2,0.9
			s0.5,0.9,0.6,1.4c0.1,0.6,0.2,1.2,0.2,1.8v5.5h-1.2v-5.1c0-0.7,0-1.3-0.1-1.8s-0.3-0.9-0.5-1.2c-0.2-0.3-0.5-0.5-0.9-0.7
			c-0.4-0.1-0.8-0.2-1.4-0.2c-0.6,0-1.1,0-1.5,0.1c-0.4,0.1-0.7,0.1-0.8,0.2v8.6h-1.2V83.9z"/>
		<path class="st0" d="M233,83.3c0.6,0,1.2,0.1,1.6,0.3s0.8,0.4,1.1,0.8c0.3,0.3,0.5,0.7,0.6,1.1c0.1,0.4,0.2,0.9,0.2,1.4v6.2
			c-0.1,0-0.3,0.1-0.6,0.1s-0.5,0.1-0.8,0.1c-0.3,0.1-0.7,0.1-1.1,0.1c-0.4,0-0.8,0-1.2,0c-0.5,0-1-0.1-1.4-0.2
			c-0.4-0.1-0.8-0.3-1.1-0.5c-0.3-0.2-0.6-0.6-0.8-1c-0.2-0.4-0.3-0.9-0.3-1.4c0-0.5,0.1-1,0.3-1.4c0.2-0.4,0.5-0.7,0.9-0.9
			c0.4-0.2,0.8-0.4,1.3-0.5c0.5-0.1,1.1-0.2,1.7-0.2c0.2,0,0.4,0,0.6,0c0.2,0,0.4,0,0.6,0.1c0.2,0,0.3,0.1,0.5,0.1
			c0.1,0,0.2,0.1,0.3,0.1v-0.6c0-0.3,0-0.7-0.1-1c-0.1-0.3-0.2-0.6-0.3-0.9s-0.4-0.5-0.7-0.6s-0.7-0.2-1.2-0.2
			c-0.7,0-1.3,0.1-1.6,0.2s-0.6,0.2-0.8,0.2l-0.2-1.1c0.2-0.1,0.5-0.2,1-0.3C231.8,83.4,232.3,83.3,233,83.3z M233.1,92.5
			c0.5,0,0.9,0,1.3,0s0.7-0.1,0.9-0.1v-3.5c-0.1-0.1-0.4-0.1-0.7-0.2c-0.3-0.1-0.7-0.1-1.3-0.1c-0.3,0-0.6,0-0.9,0.1
			c-0.3,0-0.6,0.1-0.9,0.3c-0.3,0.1-0.5,0.3-0.7,0.6c-0.2,0.3-0.3,0.6-0.3,1c0,0.4,0.1,0.7,0.2,0.9c0.1,0.3,0.3,0.5,0.5,0.6
			s0.5,0.3,0.8,0.3C232.3,92.4,232.7,92.5,233.1,92.5z"/>
		<path class="st0" d="M239.7,83.9c0.4-0.1,0.9-0.2,1.5-0.3c0.6-0.1,1.4-0.2,2.3-0.2c0.7,0,1.4,0.1,1.9,0.3s0.9,0.5,1.2,0.9
			c0.3,0.4,0.5,0.9,0.6,1.4c0.1,0.6,0.2,1.2,0.2,1.8v5.5h-1.2v-5.1c0-0.7,0-1.3-0.1-1.8s-0.3-0.9-0.5-1.2c-0.2-0.3-0.5-0.5-0.9-0.7
			c-0.4-0.1-0.8-0.2-1.4-0.2c-0.6,0-1.1,0-1.5,0.1c-0.4,0.1-0.7,0.1-0.8,0.2v8.6h-1.2V83.9z"/>
		<path class="st0" d="M254.5,93.6c-0.8,0-1.4-0.1-2-0.4c-0.6-0.2-1.1-0.6-1.5-1s-0.7-1-0.9-1.6c-0.2-0.6-0.3-1.3-0.3-2.1
			c0-0.8,0.1-1.5,0.3-2.1c0.2-0.6,0.5-1.2,0.9-1.6s0.9-0.8,1.4-1.1c0.6-0.2,1.2-0.4,1.9-0.4c0.5,0,1,0,1.5,0.1
			c0.5,0.1,0.8,0.2,1.1,0.3l-0.3,1.1c-0.3-0.1-0.5-0.2-0.9-0.3c-0.3-0.1-0.7-0.1-1.3-0.1c-1.1,0-1.9,0.4-2.5,1.1
			c-0.6,0.7-0.8,1.7-0.8,3c0,0.6,0.1,1.1,0.2,1.6s0.3,0.9,0.6,1.3c0.3,0.3,0.7,0.6,1.1,0.8c0.4,0.2,1,0.3,1.6,0.3
			c0.5,0,1-0.1,1.3-0.2c0.4-0.1,0.6-0.2,0.8-0.3l0.3,1.1c-0.2,0.1-0.6,0.2-1.1,0.4C255.6,93.5,255.1,93.6,254.5,93.6z"/>
		<path class="st0" d="M258.6,88.5c0-0.9,0.1-1.6,0.4-2.3s0.6-1.2,1-1.6c0.4-0.4,0.9-0.8,1.4-1c0.5-0.2,1-0.3,1.6-0.3
			c1.2,0,2.2,0.4,2.9,1.2c0.7,0.8,1.1,2,1.1,3.6c0,0.1,0,0.2,0,0.3c0,0.1,0,0.2,0,0.3h-6.9c0,1.2,0.3,2.1,0.9,2.8
			c0.6,0.6,1.4,1,2.7,1c0.7,0,1.2-0.1,1.6-0.2c0.4-0.1,0.7-0.2,0.9-0.3l0.2,1.1c-0.2,0.1-0.5,0.2-1,0.4s-1.1,0.2-1.7,0.2
			c-0.9,0-1.6-0.1-2.2-0.4c-0.6-0.3-1.1-0.6-1.5-1.1s-0.7-1-0.9-1.6C258.7,89.9,258.6,89.2,258.6,88.5z M265.6,87.7
			c0-1-0.3-1.8-0.7-2.4c-0.5-0.6-1.1-0.9-1.9-0.9c-0.4,0-0.8,0.1-1.2,0.3c-0.3,0.2-0.7,0.4-0.9,0.7c-0.3,0.3-0.5,0.6-0.6,1
			c-0.1,0.4-0.2,0.8-0.3,1.2H265.6z"/>
		<path class="st0" d="M271.1,80.6c0,0.3-0.1,0.5-0.3,0.7c-0.2,0.2-0.4,0.3-0.6,0.3c-0.3,0-0.5-0.1-0.6-0.3
			c-0.2-0.2-0.3-0.4-0.3-0.7c0-0.3,0.1-0.5,0.3-0.7s0.4-0.3,0.6-0.3c0.3,0,0.5,0.1,0.6,0.3C271.1,80.1,271.1,80.3,271.1,80.6z
			 M270.9,93.4h-1.2v-9.8h1.2V93.4z"/>
		<path class="st0" d="M277.5,83.4c0.4,0,0.8,0,1.2,0.1s0.6,0.1,0.8,0.2l-0.2,1.1c-0.1-0.1-0.3-0.1-0.6-0.2
			c-0.3-0.1-0.7-0.1-1.2-0.1c-0.5,0-1,0-1.3,0.1c-0.3,0.1-0.5,0.1-0.6,0.2v8.6h-1.2V84c0.3-0.1,0.8-0.3,1.3-0.4
			C276,83.4,276.7,83.4,277.5,83.4z"/>
		<path class="st0" d="M284.2,83.3c0.6,0,1.2,0.1,1.6,0.3s0.8,0.4,1.1,0.8c0.3,0.3,0.5,0.7,0.6,1.1c0.1,0.4,0.2,0.9,0.2,1.4v6.2
			c-0.1,0-0.3,0.1-0.6,0.1s-0.5,0.1-0.8,0.1c-0.3,0.1-0.7,0.1-1.1,0.1c-0.4,0-0.8,0-1.2,0c-0.5,0-1-0.1-1.4-0.2
			c-0.4-0.1-0.8-0.3-1.1-0.5c-0.3-0.2-0.6-0.6-0.8-1c-0.2-0.4-0.3-0.9-0.3-1.4c0-0.5,0.1-1,0.3-1.4c0.2-0.4,0.5-0.7,0.9-0.9
			c0.4-0.2,0.8-0.4,1.3-0.5c0.5-0.1,1.1-0.2,1.7-0.2c0.2,0,0.4,0,0.6,0c0.2,0,0.4,0,0.6,0.1c0.2,0,0.3,0.1,0.5,0.1
			c0.1,0,0.2,0.1,0.3,0.1v-0.6c0-0.3,0-0.7-0.1-1c-0.1-0.3-0.2-0.6-0.3-0.9s-0.4-0.5-0.7-0.6s-0.7-0.2-1.2-0.2
			c-0.7,0-1.3,0.1-1.6,0.2s-0.6,0.2-0.8,0.2l-0.2-1.1c0.2-0.1,0.5-0.2,1-0.3C283,83.4,283.6,83.3,284.2,83.3z M284.3,92.5
			c0.5,0,0.9,0,1.3,0s0.7-0.1,0.9-0.1v-3.5c-0.1-0.1-0.4-0.1-0.7-0.2c-0.3-0.1-0.7-0.1-1.3-0.1c-0.3,0-0.6,0-0.9,0.1
			c-0.3,0-0.6,0.1-0.9,0.3c-0.3,0.1-0.5,0.3-0.7,0.6c-0.2,0.3-0.3,0.6-0.3,1c0,0.4,0.1,0.7,0.2,0.9c0.1,0.3,0.3,0.5,0.5,0.6
			s0.5,0.3,0.8,0.3C283.6,92.4,283.9,92.5,284.3,92.5z"/>
	</g>
</g>
</svg>
