<?xml version="1.0" encoding="utf-8"?>
<!-- Generator: Adobe Illustrator 25.4.1, SVG Export Plug-In . SVG Version: 6.00 Build 0)  -->
<svg version="1.1" id="Camada_1" xmlns="http://www.w3.org/2000/svg" xmlns:xlink="http://www.w3.org/1999/xlink" x="0px" y="0px"
	 viewBox="0 0 244 77" style="enable-background:new 0 0 244 77;" xml:space="preserve">
<style type="text/css">
	.st0{fill:#FFFFFF;}
</style>
<g>
	<path class="st0" d="M91.4,54.8c0,3,0.7,5.3,2.1,7.1c1.4,1.7,3.4,2.5,5.9,2.5c1.1,0,2,0,2.7-0.1c0.8-0.1,1.4-0.2,1.9-0.3V47.1
		c-0.6-0.4-1.4-0.8-2.4-1.1c-1-0.4-2-0.6-3.1-0.6c-2.5,0-4.3,0.8-5.4,2.5C91.9,49.7,91.4,51.9,91.4,54.8z M110.8,68.7
		c-1.3,0.4-3,0.8-5.1,1.1c-2,0.3-4.1,0.5-6.4,0.5c-2.3,0-4.4-0.4-6.2-1.1c-1.8-0.7-3.4-1.7-4.7-3c-1.3-1.3-2.3-2.9-3-4.8
		c-0.7-1.9-1-4-1-6.4c0-2.3,0.3-4.4,0.8-6.3c0.6-1.9,1.5-3.5,2.6-4.9c1.1-1.3,2.5-2.4,4.1-3.1c1.6-0.7,3.5-1.1,5.5-1.1
		c1.4,0,2.7,0.2,3.8,0.5c1.1,0.3,2,0.7,2.8,1.1V27.2l6.8-1.1V68.7z M126.2,69.5h-6.8V40.3h6.8V69.5z M127,31.7c0,1.3-0.4,2.3-1.2,3
		c-0.8,0.7-1.8,1.1-2.9,1.1c-1.2,0-2.1-0.4-3-1.1c-0.8-0.7-1.2-1.8-1.2-3c0-1.3,0.4-2.3,1.2-3.1c0.8-0.7,1.8-1.1,3-1.1
		c1.1,0,2.1,0.4,2.9,1.1C126.5,29.4,127,30.4,127,31.7z M134.9,41.2c1.3-0.4,3-0.7,5.1-1.1c2.1-0.3,4.4-0.5,6.9-0.5
		c2.4,0,4.4,0.3,6,1c1.6,0.6,2.9,1.5,3.8,2.7c1,1.2,1.6,2.6,2,4.3c0.4,1.6,0.6,3.5,0.6,5.4v16.5h-6.8V54.1c0-1.6-0.1-2.9-0.3-4
		c-0.2-1.1-0.5-2-1-2.7c-0.4-0.7-1.1-1.2-1.9-1.5c-0.8-0.3-1.8-0.5-2.9-0.5c-0.9,0-1.8,0.1-2.7,0.2s-1.6,0.2-2.1,0.3v23.6h-6.8V41.2
		z M173,54.8c0,3,0.7,5.3,2.1,7.1c1.4,1.7,3.4,2.5,5.9,2.5c1.1,0,2,0,2.7-0.1c0.8-0.1,1.4-0.2,1.9-0.3V47.1
		c-0.6-0.4-1.4-0.8-2.4-1.1c-1-0.4-2-0.6-3.1-0.6c-2.5,0-4.3,0.8-5.4,2.5C173.5,49.7,173,51.9,173,54.8z M192.4,68.7
		c-1.3,0.4-3,0.8-5.1,1.1c-2,0.3-4.1,0.5-6.4,0.5c-2.3,0-4.4-0.4-6.2-1.1c-1.8-0.7-3.4-1.7-4.7-3c-1.3-1.3-2.3-2.9-3-4.8
		c-0.7-1.9-1-4-1-6.4c0-2.3,0.3-4.4,0.8-6.3c0.6-1.9,1.5-3.5,2.6-4.9c1.1-1.3,2.5-2.4,4.1-3.1c1.6-0.7,3.5-1.1,5.5-1.1
		c1.4,0,2.7,0.2,3.8,0.5c1.1,0.3,2,0.7,2.8,1.1V27.2l6.8-1.1V68.7z M207.8,69.5H201V40.3h6.8V69.5z M208.6,31.7c0,1.3-0.4,2.3-1.2,3
		s-1.8,1.1-2.9,1.1c-1.2,0-2.1-0.4-3-1.1s-1.2-1.8-1.2-3c0-1.3,0.4-2.3,1.2-3.1c0.8-0.7,1.8-1.1,3-1.1c1.1,0,2.1,0.4,2.9,1.1
		C208.1,29.4,208.6,30.4,208.6,31.7z M216.5,41.2c1.3-0.4,3-0.7,5.1-1.1c2.1-0.3,4.4-0.5,6.9-0.5c2.4,0,4.4,0.3,6,1
		c1.6,0.6,2.9,1.5,3.8,2.7c1,1.2,1.6,2.6,2,4.3c0.4,1.6,0.6,3.5,0.6,5.4v16.5h-6.8V54.1c0-1.6-0.1-2.9-0.3-4c-0.2-1.1-0.5-2-1-2.7
		c-0.4-0.7-1.1-1.2-1.9-1.5c-0.8-0.3-1.8-0.5-2.9-0.5c-0.9,0-1.8,0.1-2.7,0.2c-0.9,0.1-1.6,0.2-2.1,0.3v23.6h-6.8V41.2z"/>
	<path class="st0" d="M67.8,38.5c0-17.9-14.5-32.3-32.3-32.3S3.1,20.6,3.1,38.5s14.5,32.3,32.3,32.3c0.2,0,0.4,0,0.5,0v0h31.8V39h0
		C67.7,38.9,67.8,38.7,67.8,38.5z M35.4,65.1c-14.7,0-26.6-11.9-26.6-26.6s11.9-26.6,26.6-26.6S62,23.8,62,38.5c0,0.2,0,0.4,0,0.5
		l0,0c-0.3,14.2-11.8,25.7-26,26l0,0C35.8,65.1,35.6,65.1,35.4,65.1z"/>
	<path class="st0" d="M42.4,36.7c-3.6-2.2-8.1-3.8-8.1-3.8S32,32,32.5,30.1c0.5-1.8,4.1-2.7,10.1-0.5l1.5-5c0,0-2.8-1.2-6.5-1.4v-4
		h-4.4v4.4c-1.3,0.3-2.7,0.7-4,1.5c-5.3,4-5.7,11.7,6.3,15.1c6,1.5,3,9.6-8.6,4l-1.2,5.3c0,0,3.2,1.7,7.4,2v4.1h4.4v-4.4
		c0.9-0.2,1.8-0.5,2.7-0.8C47.4,47.2,46,38.9,42.4,36.7z"/>
</g>
</svg>
